<svg xmlns="http://www.w3.org/2000/svg" width="238.613" height="63.673" viewBox="0 0 238.613 63.673">
  <g id="Logo" transform="translate(2)">
    <path id="Path_12" data-name="Path 12" d="M1.739,12.442V51.82H11.751V41.4l2.1-3.309L19.717,51.82H31.129L20.256,29.649l9.689-17.207H19.287L11.858,27.553h-.108V12.442Zm29.874,9.541v22.5a11.29,11.29,0,0,0,.592,3.943A6.145,6.145,0,0,0,33.82,50.91a5.242,5.242,0,0,0,2.4,1.213,13.843,13.843,0,0,0,2.987.3q5.221,0,7.051-4.247h.108v3.64h9.366V21.983H46.039V41.672a5.134,5.134,0,0,1-.538,2.7,2.438,2.438,0,0,1-3.66,0,5.134,5.134,0,0,1-.538-2.7V21.983Zm37.84,14.891q0-2.427.108-4a11.618,11.618,0,0,1,.4-2.537,2.5,2.5,0,0,1,.834-1.351,2.25,2.25,0,0,1,1.346-.386,2.347,2.347,0,0,1,1.4.386,2.5,2.5,0,0,1,.834,1.351,11.618,11.618,0,0,1,.4,2.537q.108,1.572.108,4T74.782,40.9a11.715,11.715,0,0,1-.4,2.565,2.5,2.5,0,0,1-.834,1.351,2.347,2.347,0,0,1-1.4.386,2.25,2.25,0,0,1-1.346-.386,2.5,2.5,0,0,1-.834-1.351,11.716,11.716,0,0,1-.4-2.565Q69.453,39.3,69.453,36.874ZM59.765,21.983V61.361h9.689V48.456h.108a5.025,5.025,0,0,0,2.4,3.144,8.078,8.078,0,0,0,3.687.827,9.439,9.439,0,0,0,3.687-.689,6.314,6.314,0,0,0,2.8-2.427,13.774,13.774,0,0,0,1.8-4.605,33.359,33.359,0,0,0,.646-7.17q0-8.273-1.938-12.3t-6.782-4.026q-4.952,0-6.621,4.853H69.13V21.983ZM97.443,36.929q0-2.427.108-4.026a11.716,11.716,0,0,1,.4-2.565,2.5,2.5,0,0,1,.834-1.351,2.25,2.25,0,0,1,1.346-.386,2.347,2.347,0,0,1,1.4.386,2.5,2.5,0,0,1,.834,1.351,11.715,11.715,0,0,1,.4,2.565q.108,1.6.108,4.026,0,2.372-.108,3.971a11.715,11.715,0,0,1-.4,2.565,2.5,2.5,0,0,1-.834,1.351,2.347,2.347,0,0,1-1.4.386,2.25,2.25,0,0,1-1.346-.386,2.5,2.5,0,0,1-.834-1.351,11.716,11.716,0,0,1-.4-2.565Q97.443,39.3,97.443,36.929ZM87.755,12.442V51.82H97.12V47.739h.108A7.328,7.328,0,0,0,99.7,51.324a7.042,7.042,0,0,0,4.145,1.1q4.844,0,6.782-3.916t1.938-12.244a35.177,35.177,0,0,0-.619-7.2,13.813,13.813,0,0,0-1.749-4.633,6.492,6.492,0,0,0-2.8-2.482,9.152,9.152,0,0,0-3.768-.745,7.476,7.476,0,0,0-3.687.91,5.371,5.371,0,0,0-2.4,3.226h-.108V12.442Zm36.656,24.487q0-2.813.108-4.633a12.674,12.674,0,0,1,.431-2.868,2.783,2.783,0,0,1,.834-1.434,2.13,2.13,0,0,1,1.319-.386,2.25,2.25,0,0,1,1.346.386,2.562,2.562,0,0,1,.834,1.434,14.062,14.062,0,0,1,.4,2.868q.108,1.82.108,4.633t-.108,4.605a13.948,13.948,0,0,1-.4,2.84,2.562,2.562,0,0,1-.834,1.434,2.25,2.25,0,0,1-1.346.386,2.13,2.13,0,0,1-1.319-.386,2.783,2.783,0,0,1-.834-1.434,12.567,12.567,0,0,1-.431-2.84Q124.411,39.742,124.411,36.929Zm15.072,0a49.941,49.941,0,0,0-.35-6.094,13.112,13.112,0,0,0-1.588-4.991,8.576,8.576,0,0,0-3.714-3.392,15.184,15.184,0,0,0-6.728-1.241,13.546,13.546,0,0,0-6.54,1.351,9.575,9.575,0,0,0-3.741,3.557,13.669,13.669,0,0,0-1.7,5.019,40.323,40.323,0,0,0-.4,5.736,49.944,49.944,0,0,0,.35,6.094,12.872,12.872,0,0,0,1.588,4.964,8.3,8.3,0,0,0,3.714,3.309,15.8,15.8,0,0,0,6.728,1.186,14.032,14.032,0,0,0,6.54-1.3,9.262,9.262,0,0,0,3.741-3.475,13.414,13.414,0,0,0,1.7-4.991A40.324,40.324,0,0,0,139.482,36.929Zm13.564,8.99a2.03,2.03,0,0,1-1.722-.882,3.931,3.931,0,0,1-.646-2.372,5.655,5.655,0,0,1,.431-2.4A3.171,3.171,0,0,1,152.67,38.8a7.522,7.522,0,0,1,1.965-.634,1.885,1.885,0,0,0,1.319-.745h.108V41.01a7.609,7.609,0,0,1-.7,3.7A2.46,2.46,0,0,1,153.047,45.919Zm3.606,5.9h9.366a7.729,7.729,0,0,1-.754-2.758q-.161-1.6-.161-3.7V30.807a11.668,11.668,0,0,0-.834-4.771,7,7,0,0,0-2.368-2.923,9.429,9.429,0,0,0-3.66-1.489,24.419,24.419,0,0,0-4.656-.414,19.9,19.9,0,0,0-3.606.358A9.932,9.932,0,0,0,146.372,23a8.684,8.684,0,0,0-2.8,3.033,10.389,10.389,0,0,0-1.13,5.212h8.4a5.607,5.607,0,0,1,.7-3.171,2.475,2.475,0,0,1,2.045-.8q2.476,0,2.476,2.758a3.144,3.144,0,0,1-.646,2.123,4.2,4.2,0,0,1-2.207,1.131l-3.822.938a17.417,17.417,0,0,0-3.876,1.351,7.553,7.553,0,0,0-2.476,1.93,7.008,7.008,0,0,0-1.319,2.675,14.5,14.5,0,0,0-.4,3.64,13.561,13.561,0,0,0,.431,3.53,7.116,7.116,0,0,0,1.4,2.758,5.913,5.913,0,0,0,2.5,1.737,10.636,10.636,0,0,0,3.741.579,7.982,7.982,0,0,0,4.01-.993,5.827,5.827,0,0,0,2.557-2.978h.108q.108.938.215,1.765A7.972,7.972,0,0,0,156.653,51.82Zm12.488-29.837V51.82h9.689V35.55q0-2.978,1.426-4.136a6.2,6.2,0,0,1,4.01-1.158q.592,0,1.184.055t1.238.165V21.211h-1.561a6.182,6.182,0,0,0-3.929,1.406,7.962,7.962,0,0,0-2.584,4.109h-.108V21.983Zm28.044,14.946q0-2.427.108-4.026a11.714,11.714,0,0,1,.4-2.565,2.5,2.5,0,0,1,.834-1.351,2.347,2.347,0,0,1,1.4-.386,2.25,2.25,0,0,1,1.346.386,2.5,2.5,0,0,1,.834,1.351,11.716,11.716,0,0,1,.4,2.565q.108,1.6.108,4.026,0,2.372-.108,3.971a11.716,11.716,0,0,1-.4,2.565,2.5,2.5,0,0,1-.834,1.351,2.25,2.25,0,0,1-1.346.386,2.347,2.347,0,0,1-1.4-.386,2.5,2.5,0,0,1-.834-1.351,11.714,11.714,0,0,1-.4-2.565Q197.185,39.3,197.185,36.929Zm5.437-24.487V25.347h-.108a5.371,5.371,0,0,0-2.4-3.226,7.476,7.476,0,0,0-3.687-.91,8.609,8.609,0,0,0-3.66.772,6.8,6.8,0,0,0-2.826,2.537,14.106,14.106,0,0,0-1.8,4.633,33.044,33.044,0,0,0-.646,7.115q0,8.328,1.938,12.244t6.782,3.916a7.043,7.043,0,0,0,4.145-1.1,7.328,7.328,0,0,0,2.476-3.585h.108V51.82h9.366V12.442Z" transform="translate(24.303 -12.442)" fill="#a7a7a7"/>
    <g id="cornucopia" transform="translate(0 17.647)">
      <g id="Path_1" data-name="Path 1" transform="translate(-302.307 -170.057)" fill="#eaeaea">
        <path d="M 348.8595581054688 193.0457916259766 L 347.8618774414062 192.6647186279297 C 347.55078125 192.5458679199219 347.2254333496094 192.4779510498047 346.8944091796875 192.4626770019531 C 346.7267150878906 192.4687957763672 346.55859375 192.4919281005859 346.3941955566406 192.5315246582031 L 344.7902221679688 192.9177703857422 L 345.1898498535156 191.3170928955078 C 345.8049926757812 188.8530426025391 347.2633361816406 187.1133880615234 349.2962951660156 186.4186096191406 C 349.5050964355469 186.3473663330078 349.7216491699219 186.3113403320312 349.9404296875 186.3113403320312 C 350.8116149902344 186.3113403320312 351.5801086425781 186.8740692138672 351.8527526855469 187.7116241455078 C 352.1976318359375 188.7713012695312 351.62841796875 189.9234771728516 350.5838623046875 190.2800598144531 C 349.9376831054688 190.5008544921875 349.4633483886719 191.0880584716797 349.1742858886719 192.0252685546875 L 348.8595581054688 193.0457916259766 Z" stroke="none"/>
        <path d="M 349.9403991699219 187.3113403320312 C 349.8341369628906 187.3113403320312 349.7260437011719 187.3285827636719 349.6196899414062 187.3648681640625 C 347.908203125 187.9497833251953 346.6920471191406 189.4283752441406 346.1600646972656 191.5593109130859 C 346.4027404785156 191.5008697509766 346.6506958007812 191.4681549072266 346.8998107910156 191.4620666503906 C 347.3507995605469 191.4784088134766 347.7960205078125 191.569091796875 348.2187194824219 191.7305450439453 C 348.52392578125 190.740966796875 349.1181030273438 189.7241363525391 350.2608032226562 189.3337097167969 L 350.2608032226562 189.3336791992188 C 350.7918701171875 189.1523895263672 351.0787963867188 188.5648193359375 350.90185546875 188.0211486816406 C 350.7603149414062 187.5862731933594 350.3648071289062 187.3113403320312 349.9403991699219 187.3113403320312 M 349.9404296875 185.3113403320312 C 351.2459411621094 185.3113403320312 352.3965759277344 186.1515502929688 352.8036499023438 187.4021148681641 C 353.3167419433594 188.9786987304688 352.4658813476562 190.6942443847656 350.9069519042969 191.2264251708984 C 350.5809326171875 191.3378295898438 350.3193054199219 191.705810546875 350.1298828125 192.3199920654297 L 349.5003662109375 194.3610534667969 L 347.5050659179688 193.5988922119141 C 347.3070068359375 193.5232391357422 347.1006469726562 193.4779510498047 346.8907775878906 193.4640045166016 C 346.8028869628906 193.4695739746094 346.71484375 193.4828796386719 346.6283264160156 193.5037231445312 L 343.42041015625 194.2762451171875 L 344.2196044921875 191.0748748779297 C 344.9197692871094 188.2703094482422 346.6078491210938 186.2806243896484 348.972900390625 185.4723358154297 C 349.2863159179688 185.3654022216797 349.6115112304688 185.3113403320312 349.9404296875 185.3113403320312 Z" stroke="none" fill="#a7a7a7"/>
      </g>
      <g id="Path_2" data-name="Path 2" transform="translate(-237.542 -211.835)" fill="#eaeaea">
        <path d="M 276.0498046875 252.91845703125 L 276.0019836425781 252.9162750244141 C 275.7340087890625 252.9039764404297 274.3330383300781 252.7670593261719 273.0639038085938 251.2750091552734 L 272.7677917480469 250.9268646240234 L 272.8372497558594 250.4751129150391 C 272.9576110839844 249.6923828125 273.0214233398438 248.8932952880859 273.0269470214844 248.1000823974609 C 273.0261535644531 247.143798828125 272.7051696777344 246.3681793212891 272.0728759765625 245.7945709228516 C 271.9030151367188 245.6415710449219 271.7141418457031 245.5035858154297 271.5141296386719 245.3868255615234 L 271.04052734375 245.1103668212891 L 271.0190124511719 244.5623931884766 C 271.0064086914062 244.2412109375 271.0000305175781 243.9230804443359 271.0000305175781 243.6168212890625 C 271.0000305175781 234.8116760253906 275.4983215332031 234.3417816162109 276.01123046875 234.3171997070312 L 276.0629577636719 234.3147125244141 L 276.1146850585938 234.3175811767578 C 276.307861328125 234.3283386230469 277.3258361816406 234.4271545410156 278.3988647460938 235.3192749023438 L 279.0736083984375 235.8802490234375 L 278.6050720214844 236.6221771240234 C 277.5757446289062 238.2521362304688 277.0538330078125 240.6053924560547 277.0538330078125 243.6165771484375 C 277.0538330078125 246.6178741455078 277.5770874023438 248.9716491699219 278.6090393066406 250.6125183105469 L 279.07373046875 251.3513641357422 L 278.4044799804688 251.9116516113281 C 277.329345703125 252.8117523193359 276.2942504882812 252.9062805175781 276.09765625 252.9160766601562 L 276.0498046875 252.91845703125 Z" stroke="none"/>
        <path d="M 276.0591125488281 235.3160400390625 C 275.7886047363281 235.3290100097656 272.0000305175781 235.6557922363281 272.0000305175781 243.6168212890625 C 272.0000305175781 243.9253845214844 272.0066528320312 244.2277526855469 272.0182495117188 244.523193359375 C 272.2772827148438 244.6744079589844 272.5208435058594 244.8522033691406 272.7447814941406 245.0539245605469 C 273.5835266113281 245.8148193359375 274.0269470214844 246.8697204589844 274.0269470214844 248.1036682128906 C 274.021240234375 248.9487609863281 273.9540100097656 249.792236328125 273.8256225585938 250.6271057128906 C 274.8504943847656 251.8320007324219 275.9554138183594 251.9130859375 276.0478210449219 251.9173278808594 C 276.1456298828125 251.9124450683594 276.9202880859375 251.8500366210938 277.7625427246094 251.1448974609375 C 276.6295471191406 249.3433837890625 276.0538330078125 246.8141479492188 276.0538330078125 243.6165771484375 C 276.0538330078125 240.3999938964844 276.628173828125 237.8797912597656 277.7595520019531 236.0882263183594 C 276.9153137207031 235.3863220214844 276.1302795410156 235.3200073242188 276.0591125488281 235.3160400390625 M 276.0668029785156 233.3133697509766 L 276.1702575683594 233.3191375732422 C 276.5189819335938 233.3385467529297 277.7564392089844 233.4846801757812 279.0381774902344 234.5503234863281 L 280.3876342773438 235.6722717285156 L 279.4505920410156 237.1561126708984 C 278.5237731933594 238.6237640380859 278.0538330078125 240.7973785400391 278.0538330078125 243.6165771484375 C 278.0538330078125 246.4265594482422 278.5254516601562 248.6012268066406 279.45556640625 250.0801391601562 L 280.3849182128906 251.5578308105469 L 279.0464172363281 252.6784210205078 C 277.7596740722656 253.7556762695312 276.5022277832031 253.8971405029297 276.1474914550781 253.9148406982422 L 276.0518188476562 253.9196166992188 L 275.9561462402344 253.9152221679688 C 275.6156616210938 253.8995971679688 273.83935546875 253.7301177978516 272.3021850585938 251.9229125976562 L 271.7099304199219 251.2266235351562 L 271.8488464355469 250.3231353759766 C 271.9616088867188 249.58984375 272.0215454101562 248.8412475585938 272.0269470214844 248.0980529785156 C 272.0257568359375 247.4376220703125 271.8157043457031 246.912353515625 271.4026184082031 246.5366973876953 C 271.2817993164062 246.4283142089844 271.1497497558594 246.33203125 271.0099792480469 246.2504577636719 L 270.0627746582031 245.6975402832031 L 270.019775390625 244.6015930175781 C 270.0066833496094 244.2674102783203 270.0000305175781 243.9360809326172 270.0000305175781 243.6168212890625 C 270.0000305175781 239.7783508300781 270.8238525390625 236.9263916015625 272.4486389160156 235.1401519775391 C 273.9076538085938 233.5361175537109 275.5076904296875 233.3401794433594 275.9633483886719 233.3183288574219 L 276.0668029785156 233.3133697509766 Z" stroke="none" fill="#a7a7a7"/>
      </g>
      <g id="Path_3" data-name="Path 3" transform="translate(-167.677 -156.134)" fill="#eaeaea">
        <path d="M 192.6218566894531 189.5035400390625 L 192.2773895263672 188.6760406494141 C 191.4417266845703 186.6685485839844 191.0000305175781 184.2528076171875 191.0000305175781 181.6899871826172 C 191.0000305175781 178.6513061523438 191.6302642822266 175.7943725585938 192.7746429443359 173.6454772949219 C 193.9030914306641 171.5281677246094 195.4676666259766 170.3139953613281 197.0673370361328 170.3139953613281 C 198.5649261474609 170.3139953613281 200.0020751953125 171.34228515625 201.1140594482422 173.2094421386719 C 202.1566467285156 174.9600982666016 202.8480834960938 177.3466339111328 203.0609893798828 179.9294128417969 L 203.0912322998047 180.296142578125 L 202.8765411376953 180.5949859619141 C 201.7024536132812 182.2294311523438 201.1071319580078 184.6922760009766 201.1071319580078 187.9151153564453 C 201.1071319580078 187.9397583007812 201.1074676513672 187.9642028808594 201.1077728271484 187.9886016845703 C 201.1081695556641 188.0211334228516 201.1085357666016 188.0536193847656 201.1085357666016 188.0863037109375 L 201.1085357666016 189.2886505126953 L 199.9263305664062 189.0695648193359 C 199.3520355224609 188.9631500244141 198.7645416259766 188.9091796875 198.18017578125 188.9091796875 C 198.1089019775391 188.9091796875 198.0375823974609 188.9099731445312 197.9662933349609 188.9115600585938 L 197.1594696044922 188.9295501708984 L 197.1540374755859 188.9068603515625 L 195.8246307373047 188.9109497070312 C 195.0321502685547 188.9133758544922 194.2439727783203 189.0278930664062 193.4819793701172 189.2513427734375 L 192.6218566894531 189.5035400390625 Z M 195.0489196777344 184.8479156494141 C 195.4822235107422 185.3199462890625 196.3192291259766 186.4095458984375 196.7559204101562 187.5546112060547 L 196.9538116455078 188.0735168457031 C 196.6075439453125 186.7253723144531 195.6065979003906 185.3800048828125 195.0526275634766 184.7796936035156 C 195.0370025634766 184.7968139648438 195.0342254638672 184.8292846679688 195.0489196777344 184.8479156494141 Z" stroke="none"/>
        <path d="M 197.0673370361328 171.3139953613281 C 195.8490447998047 171.3139953613281 194.6060333251953 172.3353881835938 193.6572875976562 174.1155242919922 C 192.588623046875 176.1222381591797 192.0000305175781 178.8119506835938 192.0000305175781 181.6899871826172 C 192.0000305175781 184.1189270019531 192.4231262207031 186.4240264892578 193.2005920410156 188.2917327880859 C 194.0529479980469 188.0418090820312 194.9348907470703 187.9136657714844 195.8215637207031 187.9109497070312 C 195.4336547851562 186.8938293457031 194.6612854003906 185.9022827148438 194.3047790527344 185.5160522460938 C 193.9268798828125 185.0932159423828 193.9553985595703 184.4369201660156 194.3682403564453 184.0500030517578 C 194.5623626708984 183.8681793212891 194.8075408935547 183.7779388427734 195.0522308349609 183.7779235839844 C 195.3145446777344 183.7778930664062 195.5763092041016 183.8815765380859 195.7743225097656 184.0872650146484 C 195.9735717773438 184.3019104003906 197.4794769287109 185.9723052978516 197.9440002441406 187.9118194580078 C 198.0227203369141 187.9100646972656 198.1014709472656 187.9091796875 198.18017578125 187.9091796875 C 198.8266906738281 187.9091796875 199.4720306396484 187.9683532714844 200.1085357666016 188.0863037109375 C 200.1085357666016 188.0290985107422 200.1071319580078 187.9725799560547 200.1071319580078 187.9151153564453 C 200.1071319580078 184.467529296875 200.7658996582031 181.8191680908203 202.0643768310547 180.0115661621094 C 201.8634490966797 177.5742340087891 201.2262573242188 175.3522033691406 200.2548828125 173.7211151123047 C 199.3304290771484 172.1688385009766 198.1985015869141 171.3139953613281 197.0673370361328 171.3139953613281 M 197.0673370361328 169.3139953613281 C 198.9314422607422 169.3139953613281 200.6737213134766 170.5157012939453 201.9732360839844 172.69775390625 C 203.1083984375 174.6038818359375 203.8291625976562 177.0761413574219 204.0576171875 179.8472442626953 L 204.1180725097656 180.5807037353516 L 203.688720703125 181.1784057617188 C 202.6392517089844 182.6393432617188 202.1071319580078 184.9058990478516 202.1071319580078 187.9151153564453 C 202.1071319580078 187.9356384277344 202.1074371337891 187.9559783935547 202.1076812744141 187.9763031005859 C 202.1081390380859 188.0129241943359 202.1085357666016 188.0494995117188 202.1085357666016 188.0863037109375 L 202.1085357666016 190.490966796875 L 199.7441253662109 190.0528259277344 C 199.2297821044922 189.95751953125 198.7035827636719 189.9091796875 198.18017578125 189.9091796875 C 198.1162872314453 189.9091796875 198.0523529052734 189.909912109375 197.9884490966797 189.9113311767578 L 196.3749084472656 189.9471893310547 L 196.3658294677734 189.9092864990234 L 195.8277130126953 189.9109344482422 C 195.1294708251953 189.9130706787109 194.4349212646484 190.0140075683594 193.7633514404297 190.2109222412109 L 192.0431060791016 190.7153472900391 L 191.3541870117188 189.0603485107422 C 190.4682922363281 186.9321594238281 190.0000305175781 184.3835296630859 190.0000305175781 181.6899871826172 C 190.0000305175781 178.4902954101562 190.6719512939453 175.4664306640625 191.8920135498047 173.1754302978516 C 192.4888610839844 172.0555419921875 193.1951599121094 171.1562194824219 193.9916076660156 170.5018768310547 C 194.9374694824219 169.7247619628906 196.0010528564453 169.3139953613281 197.0673370361328 169.3139953613281 Z" stroke="none" fill="#a7a7a7"/>
      </g>
      <g id="Path_4" data-name="Path 4" transform="translate(-167.677 -281.442)" fill="#eaeaea">
        <path d="M 198.9919891357422 326.46826171875 C 198.9918975830078 326.46826171875 198.9918823242188 326.46826171875 198.9917907714844 326.46826171875 C 198.3768768310547 326.4682312011719 197.7470855712891 326.2141418457031 197.0664367675781 325.6914978027344 C 196.3877716064453 326.2140808105469 195.7579498291016 326.4681091308594 195.1428680419922 326.4681091308594 C 194.7982482910156 326.4681091308594 194.4751739501953 326.3885192871094 194.1551666259766 326.2247619628906 C 193.6587677001953 325.9706726074219 192.7062072753906 325.2162780761719 191.9030609130859 323.0181274414062 C 191.3207397460938 321.42431640625 191.0000305175781 319.539306640625 191.0000305175781 317.7103271484375 C 191.0000305175781 316.7860412597656 191.3109436035156 316.0343933105469 191.9241180419922 315.4763488769531 C 192.9958953857422 314.5010070800781 194.7403564453125 314.2962646484375 196.0150451660156 314.2962646484375 C 196.3677825927734 314.2962646484375 196.7153778076172 314.3134155273438 197.0023651123047 314.3447570800781 L 197.0138702392578 314.3447570800781 L 197.0673675537109 314.3513793945312 L 197.1208190917969 314.3447570800781 L 197.1313323974609 314.3447570800781 C 197.3152313232422 314.324462890625 197.6434478759766 314.2976989746094 198.0956878662109 314.2976989746094 C 199.1475067138672 314.2976989746094 201.080322265625 314.4504089355469 202.2073516845703 315.4731750488281 C 202.8224792480469 316.0303955078125 203.1347198486328 316.7832336425781 203.1347198486328 317.7101745605469 C 203.1347198486328 319.5391235351562 202.8140106201172 321.4241027832031 202.2316741943359 323.017822265625 C 201.8869934082031 323.961181640625 201.1361389160156 325.6321411132812 199.9800262451172 326.2245178222656 C 199.6599884033203 326.3885192871094 199.3367462158203 326.46826171875 198.9919891357422 326.46826171875 Z" stroke="none"/>
        <path d="M 196.0150451660156 315.2962951660156 C 194.9383697509766 315.2962951660156 193.4164581298828 315.4703674316406 192.5971984863281 316.2159118652344 C 192.1897888183594 316.5867004394531 192.0000305175781 317.0616149902344 192.0000305175781 317.7103271484375 C 192.0000305175781 321.4157104492188 193.3759460449219 324.7025146484375 194.6107177734375 325.3345336914062 C 194.7461090087891 325.40380859375 194.9190063476562 325.4681091308594 195.1428680419922 325.4681091308594 C 195.4635925292969 325.4681091308594 195.8889923095703 325.3362731933594 196.4593048095703 324.8983459472656 C 196.6394348144531 324.760009765625 196.8533935546875 324.6908264160156 197.0673522949219 324.6908264160156 C 197.2813262939453 324.6908264160156 197.4953002929688 324.760009765625 197.6754455566406 324.8983459472656 C 198.2456970214844 325.3362121582031 198.671142578125 325.46826171875 198.9918670654297 325.46826171875 C 199.2156677246094 325.46826171875 199.3884429931641 325.4040222167969 199.5240173339844 325.3345336914062 C 200.7588043212891 324.7018432617188 202.1347198486328 321.4156188964844 202.1347198486328 317.7101745605469 C 202.1347198486328 317.0601806640625 201.9446563720703 316.5845031738281 201.5353240966797 316.2137145996094 C 200.7142028808594 315.4685668945312 199.1642761230469 315.2977294921875 198.0956878662109 315.2976989746094 C 197.7135162353516 315.2976989746094 197.3931121826172 315.3195190429688 197.1893463134766 315.3447570800781 C 197.1871032714844 315.3447570800781 197.1848297119141 315.3447570800781 197.1826171875 315.3447570800781 C 197.1443634033203 315.3494873046875 197.1058654785156 315.3518676757812 197.0673675537109 315.3518676757812 C 197.0288696289062 315.3518676757812 196.9903717041016 315.3494873046875 196.9521026611328 315.3447570800781 C 196.9499206542969 315.3447570800781 196.9476470947266 315.3447570800781 196.9453582763672 315.3447570800781 C 196.7267913818359 315.3184509277344 196.3991394042969 315.2962951660156 196.0150451660156 315.2962951660156 M 196.0150451660156 313.2962646484375 C 196.3802947998047 313.2962646484375 196.7439117431641 313.3133544921875 197.0545959472656 313.3447570800781 L 197.0591583251953 313.3447570800781 L 197.0783538818359 313.3447570800781 C 197.3774871826172 313.3142700195312 197.7327880859375 313.2976989746094 198.0954284667969 313.2976989746094 C 199.5566864013672 313.2977294921875 201.5725250244141 313.5466918945312 202.8793792724609 314.732666015625 C 203.7119140625 315.48681640625 204.1347198486328 316.4889831542969 204.1347198486328 317.7101745605469 C 204.1347198486328 319.6532592773438 203.7924499511719 321.6600952148438 203.1709442138672 323.3610229492188 C 202.6885528564453 324.6812133789062 201.8224945068359 326.4040832519531 200.43603515625 327.114501953125 C 199.9779052734375 327.3492126464844 199.4920043945312 327.46826171875 198.9918670654297 327.46826171875 C 198.3489837646484 327.46826171875 197.7144470214844 327.2813110351562 197.0673522949219 326.8993530273438 C 196.4202728271484 327.2812805175781 195.7858276367188 327.4681091308594 195.1428680419922 327.4681091308594 C 194.6430969238281 327.4681091308594 194.1575164794922 327.3492736816406 193.6996002197266 327.1149597167969 C 192.3125457763672 326.4049987792969 191.4462890625 324.6818542480469 190.9637908935547 323.3612976074219 C 190.3423004150391 321.6603393554688 190.0000305175781 319.6534423828125 190.0000305175781 317.7103271484375 C 190.0000305175781 316.4927062988281 190.4209289550781 315.4922790527344 191.2510375976562 314.7367858886719 C 192.5593566894531 313.5461730957031 194.5638580322266 313.2962646484375 196.0150451660156 313.2962646484375 Z" stroke="none" fill="#a7a7a7"/>
      </g>
      <g id="Path_5" data-name="Path 5" transform="translate(-337.557 -211.834)" fill="#eaeaea">
        <path d="M 389.2445068359375 244.7306976318359 L 388.5674438476562 244.10888671875 C 388.3651428222656 243.923095703125 388.1331176757812 243.7826232910156 387.8777160644531 243.6913452148438 L 387.2378540039062 243.462646484375 L 387.2148742675781 242.7835235595703 C 387.1262817382812 240.1667022705078 386.6091003417969 238.0924377441406 385.6776428222656 236.6183471679688 L 385.2101745605469 235.8784942626953 L 385.8815307617188 235.3170776367188 C 386.9173889160156 234.4507598876953 387.8971252441406 234.3315734863281 388.1727600097656 234.3156890869141 L 388.2297058105469 234.3123931884766 L 388.2866821289062 234.3156280517578 C 388.7655639648438 234.3426666259766 392.973876953125 234.8079833984375 393.2671813964844 242.7127685546875 L 393.3218994140625 244.1876068115234 L 391.9318542480469 243.6917114257812 C 391.7183837890625 243.6155548095703 391.4959716796875 243.5769500732422 391.2707214355469 243.5769500732422 C 390.7726745605469 243.5769500732422 390.2933349609375 243.7656402587891 389.9209899902344 244.1082458496094 L 389.2445068359375 244.7306976318359 Z" stroke="none"/>
        <path d="M 389.2438659667969 243.3723754882812 C 389.8092041015625 242.8522033691406 390.5338745117188 242.5769500732422 391.2707214355469 242.5769500732422 C 391.6051635742188 242.5769500732422 391.9420776367188 242.6336364746094 392.2678527832031 242.7498474121094 C 392.0054931640625 235.6788024902344 388.5323181152344 235.3310852050781 388.2303161621094 235.3140258789062 C 388.1113586425781 235.3208923339844 387.3500061035156 235.392578125 386.5230407714844 236.0841674804688 C 387.5515441894531 237.7118835449219 388.1192626953125 239.9421997070312 388.2142944335938 242.7496948242188 C 388.5943603515625 242.8855285644531 388.9442138671875 243.09716796875 389.2438659667969 243.3723754882812 M 389.2451171875 246.0890045166016 L 387.8910217285156 244.8453979492188 C 387.7877197265625 244.7505187988281 387.6699829101562 244.6790618896484 387.5411682128906 244.6330108642578 L 386.2614135742188 244.1756134033203 L 386.2154235839844 242.8173522949219 C 386.1329650878906 240.3803863525391 385.6676025390625 238.4744567871094 384.832275390625 237.1525115966797 L 383.8973083496094 235.6728363037109 L 385.239990234375 234.5499572753906 C 386.5113220214844 233.4867706298828 387.7621154785156 233.3377075195312 388.1151733398438 233.3173522949219 L 388.2290954589844 233.3107757568359 L 388.3430480957031 233.3172149658203 C 388.7743225097656 233.3415679931641 390.291259765625 233.5347137451172 391.7031555175781 234.9979248046875 C 393.2754821777344 236.6273651123047 394.1379089355469 239.2105407714844 394.2664794921875 242.6756896972656 L 394.3759155273438 245.6253814697266 L 391.5958251953125 244.6335754394531 C 391.4905395507812 244.5960083007812 391.3811340332031 244.5769500732422 391.2707214355469 244.5769500732422 C 391.0242309570312 244.5769500732422 390.7853393554688 244.6718444824219 390.5980834960938 244.8441467285156 L 389.2451171875 246.0890045166016 Z" stroke="none" fill="#a7a7a7"/>
      </g>
      <g id="Path_6" data-name="Path 6" transform="translate(0 -54.278)" fill="#eaeaea">
        <path d="M 2.249179601669312 69.74669647216797 L 0.3079397082328796 69.73915100097656 C -0.5405402779579163 66.25813293457031 -0.980590283870697 62.67422103881836 -0.9999902844429016 59.08697891235352 L -1.000000238418579 59.08427047729492 L -1.000000238418579 59.08156967163086 C -1.000000238418579 57.08092880249023 -0.8968802690505981 55.41238021850586 -0.6935102939605713 54.12228012084961 L -0.2941102683544159 51.58864974975586 L 1.126819729804993 53.7240104675293 C 1.935499668121338 54.93928909301758 3.384689807891846 56.94113922119141 5.696239948272705 59.57648849487305 L 6.160549640655518 60.10583877563477 L 5.818689823150635 60.72140884399414 C 4.245429515838623 63.55426788330078 3.044469833374023 66.5908203125 2.249179601669312 69.74669647216797 Z" stroke="none"/>
        <path d="M 0.2942895889282227 54.27797698974609 L 0.2942895889282227 54.27799987792969 C 0.1355495452880859 55.28498077392578 -4.76837158203125e-07 56.80999755859375 -4.76837158203125e-07 59.08156585693359 C 0.01899957656860352 62.59502029418945 0.4485898017883301 66.09339904785156 1.279499769210815 69.50233459472656 C 2.096229791641235 66.26138305664062 3.328609704971313 63.14545059204102 4.944459915161133 60.23590087890625 C 2.666439771652222 57.63877868652344 1.192729711532593 55.62816619873047 0.2942895889282227 54.27797698974609 M -0.882500171661377 48.89926147460938 L 1.959349632263184 53.17002105712891 C 2.751189708709717 54.36000061035156 4.172699928283691 56.32302856445312 6.448019981384277 58.91707611083984 L 7.376649856567383 59.97578048706055 L 6.692919731140137 61.20692825317383 C 5.161789894104004 63.96392059326172 3.992949724197388 66.91932678222656 3.218869686126709 69.99105834960938 L -0.6636104583740234 69.9759521484375 C -1.530530452728271 66.41926574707031 -1.98015022277832 62.75751113891602 -1.999970436096191 59.09239196777344 L -2.000000476837158 59.08698272705078 L -2.000000476837158 59.08156585693359 C -2.000000476837158 57.02894592285156 -1.892780303955078 55.30800628662109 -1.681310176849365 53.96656799316406 L -0.882500171661377 48.89926147460938 Z" stroke="none" fill="#a7a7a7"/>
      </g>
      <g id="Path_7" data-name="Path 7" transform="translate(-55.892 -133.17)" fill="#eaeaea">
        <path d="M 71.76892852783203 171.2899169921875 L 69.20059204101562 169.5096893310547 C 68.764892578125 169.2076873779297 68.33251190185547 168.8875579833984 67.91547393798828 168.5581970214844 C 66.32028198242188 167.2911071777344 64.86015319824219 165.8443450927734 63.57341384887695 164.2563323974609 L 63.39993667602539 164.042236328125 L 63.36061477661133 163.7695007324219 C 63.12066650390625 162.1053466796875 62.99933624267578 160.4081268310547 62.99999618530273 158.7250061035156 C 62.99999618530273 153.6986999511719 64.06686401367188 148.7797698974609 66.08527374267578 144.5004119873047 L 66.54095458984375 143.5342864990234 L 67.47495269775391 144.0526275634766 C 68.58281707763672 144.6674346923828 69.77103424072266 145.1048278808594 71.00660705566406 145.3526458740234 L 72.27594757080078 145.6072387695312 L 71.70894622802734 146.7710723876953 C 69.97196197509766 150.3365173339844 69.05384826660156 154.4702606201172 69.05384826660156 158.7254028320312 C 69.04205322265625 162.0222015380859 69.59969329833984 165.2589569091797 70.71125793457031 168.349365234375 L 71.76892852783203 171.2899169921875 Z" stroke="none"/>
        <path d="M 66.98971557617188 144.927001953125 C 65.04119873046875 149.0581970214844 63.99999237060547 153.7912445068359 63.99999237060547 158.7254028320312 C 63.99935913085938 160.36572265625 64.11639404296875 162.0039978027344 64.35037231445312 163.6267852783203 C 65.59353637695312 165.1610107421875 66.99693298339844 166.5514984130859 68.53524780273438 167.7734222412109 C 68.9385986328125 168.0919647216797 69.35033416748047 168.3967437744141 69.77027893066406 168.6878204345703 C 68.62303924560547 165.4982299804688 68.04168701171875 162.1243286132812 68.05384826660156 158.7254028320312 C 68.05384826660156 154.2767028808594 69.03008270263672 149.9865875244141 70.80995178222656 146.3331146240234 C 69.47435760498047 146.0652313232422 68.18624877929688 145.5910186767578 66.98971557617188 144.927001953125 M 66.09218597412109 142.1415863037109 L 67.96018218994141 143.1782379150391 C 68.97780609130859 143.7429656982422 70.06893920898438 144.1446533203125 71.20326232910156 144.3721618652344 L 73.74192810058594 144.88134765625 L 72.60794067382812 147.2090454101562 C 70.93703460693359 150.6388397216797 70.05384826660156 154.6211395263672 70.05384826660156 158.7254028320312 L 70.05384826660156 158.7289886474609 L 70.0538330078125 158.7325592041016 C 70.04246520996094 161.9088439941406 70.58025360107422 165.0305328369141 71.65224456787109 168.0109100341797 L 73.76756286621094 173.8920135498047 L 68.63092803955078 170.3315582275391 C 68.17821502685547 170.0177764892578 67.72898864746094 169.6851654052734 67.29570770263672 169.3429870605469 L 67.29348754882812 169.3412322998047 L 67.29127502441406 169.3394775390625 C 65.64127349853516 168.0288391113281 64.12900543212891 166.5304260253906 62.79646301269531 164.8858947753906 L 62.44949340820312 164.4576873779297 L 62.37084197998047 163.9122009277344 C 62.12409210205078 162.2008209228516 61.99931335449219 160.4554595947266 61.99999237060547 158.7246246337891 C 61.99999237060547 153.5521545410156 63.09990692138672 148.4857177734375 65.18082427978516 144.0738220214844 L 66.09218597412109 142.1415863037109 Z" stroke="none" fill="#a7a7a7"/>
      </g>
      <g id="Ellipse_1" data-name="Ellipse 1" transform="translate(52.7 32.819)" fill="#eaeaea" stroke="#a7a7a7" stroke-width="2">
        <ellipse cx="1.013" cy="1.038" rx="1.013" ry="1.038" stroke="none"/>
        <ellipse cx="1.013" cy="1.038" rx="2.013" ry="2.038" fill="none"/>
      </g>
      <g id="Path_8" data-name="Path 8" transform="translate(-97.811 -143.198)" fill="#eaeaea">
        <path d="M 121.6516036987305 183.8501892089844 L 120.1780776977539 183.5139923095703 C 118.1163864135742 183.0436096191406 116.1092376708984 182.3232116699219 114.2123870849609 181.372802734375 L 113.9165267944336 181.2245635986328 L 113.7674942016602 180.9291076660156 C 111.9569854736328 177.3397369384766 111 173.1295928955078 111 168.7538604736328 C 111 164.2216796875 112.0279083251953 159.8775024414062 113.9726028442383 156.19091796875 L 114.2761077880859 155.6155548095703 L 114.9251098632812 155.6598052978516 C 115.3956527709961 155.6918792724609 115.8732376098633 155.7081451416016 116.344596862793 155.7081451416016 C 117.411376953125 155.7081298828125 118.4868927001953 155.625244140625 119.5412750244141 155.4617767333984 L 121.947395324707 155.0887298583984 L 120.4980163574219 157.0452270507812 C 120.3390274047852 157.2598419189453 120.1816635131836 157.4864654541016 120.0303039550781 157.7187805175781 C 118.110954284668 160.6665649414062 117.0538330078125 164.5856475830078 117.0538330078125 168.7538604736328 C 117.0538330078125 173.6554260253906 118.5080337524414 178.173828125 121.0435791015625 181.1504821777344 L 121.2324447631836 181.3722229003906 L 121.2727127075195 181.6606903076172 C 121.3047943115234 181.8905029296875 121.3425064086914 182.1266326904297 121.3848190307617 182.3625335693359 L 121.6516036987305 183.8501892089844 Z" stroke="none"/>
        <path d="M 119.6944885253906 156.4499664306641 C 118.5851364135742 156.6219635009766 117.465202331543 156.7081451416016 116.3446044921875 156.7081451416016 C 115.8485870361328 156.7081451416016 115.3526382446289 156.6912689208984 114.8570861816406 156.6574859619141 C 113.0146026611328 160.1502990722656 112 164.3629455566406 112 168.7538604736328 C 112 173.0106201171875 112.9405975341797 177.0693206787109 114.6603469848633 180.4787445068359 C 116.4878845214844 181.3944244384766 118.4146270751953 182.0859527587891 120.4005126953125 182.5390472412109 C 120.3557891845703 182.2896270751953 120.3163757324219 182.0429382324219 120.2823181152344 181.7989349365234 C 117.5918197631836 178.6403503417969 116.0538330078125 173.9090423583984 116.0538330078125 168.7538604736328 C 116.0538330078125 164.3939819335938 117.1686859130859 160.2810363769531 119.1924438476562 157.1728973388672 C 119.3553466796875 156.9228668212891 119.5227127075195 156.6818389892578 119.6944885253906 156.4499664306641 M 124.2002944946289 153.7275085449219 L 121.3015594482422 157.6404876708984 C 121.1544494628906 157.8390655517578 121.0086288452148 158.049072265625 120.8681640625 158.2646636962891 C 119.0534286499023 161.0517883300781 118.0538330078125 164.7770843505859 118.0538330078125 168.7538604736328 C 118.0538330078125 173.4214477539062 119.421028137207 177.7034912109375 121.8048400878906 180.5020446777344 L 122.1825790405273 180.9455108642578 L 122.2631072998047 181.5224304199219 C 122.2934188842773 181.7395172119141 122.3290786743164 181.9627685546875 122.3691101074219 182.1860046386719 L 122.9026947021484 185.1613311767578 L 119.9556350708008 184.4889373779297 C 117.8158874511719 184.0007476806641 115.7328567504883 183.2531280517578 113.7644271850586 182.2668609619141 L 113.1727142333984 181.9703826904297 L 112.8746566772461 181.3794708251953 C 110.9940338134766 177.651123046875 110 173.2852630615234 110 168.7538604736328 C 110 164.0597229003906 111.0678558349609 159.5541839599609 113.0881195068359 155.7243499755859 L 113.6951370239258 154.5736236572266 L 114.9931488037109 154.662109375 C 115.441047668457 154.6926574707031 115.8957443237305 154.7081451416016 116.3446044921875 154.7081451416016 C 117.3601531982422 154.7081451416016 118.3841247558594 154.6292266845703 119.3880767822266 154.4735717773438 L 124.2002944946289 153.7275085449219 Z" stroke="none" fill="#a7a7a7"/>
      </g>
      <g id="Path_9" data-name="Path 9" transform="translate(-139.731 -128.285)" fill="#eaeaea">
        <path d="M 162.48291015625 165.8892669677734 L 161.3254852294922 163.7412109375 C 159.8258972167969 160.9581298828125 159.0000305175781 157.4419403076172 159.0000305175781 153.8403930664062 C 159.0000305175781 149.6943664550781 160.0513000488281 145.7965087890625 161.9601898193359 142.8648681640625 C 163.8711395263672 139.9301605224609 166.4143218994141 138.31396484375 169.1212463378906 138.31396484375 C 171.3684997558594 138.31396484375 173.5793304443359 139.4776000976562 175.3464660644531 141.5905303955078 C 177.0443420410156 143.6206512451172 178.2551116943359 146.3683319091797 178.847900390625 149.5365295410156 L 179.0385589599609 150.5555877685547 L 178.0133056640625 150.7093811035156 C 177.4684906005859 150.7911071777344 176.9530181884766 150.9813079833984 176.4812164306641 151.2746887207031 L 175.1977081298828 152.0727996826172 L 174.9650726318359 150.5793914794922 C 174.5851287841797 148.1403961181641 173.7657012939453 145.983154296875 172.6576843261719 144.5050659179688 C 171.9341125488281 143.5398101806641 170.7332000732422 142.38916015625 169.1212463378906 142.38916015625 C 167.5721130371094 142.38916015625 166.0912017822266 143.4909515380859 164.9512786865234 145.4915924072266 C 163.7103576660156 147.6694488525391 163.0269622802734 150.6344604492188 163.0269622802734 153.8403930664062 C 163.0269622802734 156.4337310791016 163.5019989013672 158.9740447998047 164.3645782470703 160.9933776855469 L 164.6542358398438 161.6714782714844 L 164.092041015625 162.1486206054688 L 164.0567779541016 162.1784057617188 C 164.0311126708984 162.2000427246094 164.0055084228516 162.2213439941406 163.9806823730469 162.2438354492188 C 163.5939788818359 162.5923461914062 163.3129577636719 163.0422210693359 163.1658477783203 163.5467681884766 L 162.48291015625 165.8892669677734 Z" stroke="none"/>
        <path d="M 169.1212463378906 139.31396484375 C 166.7640686035156 139.31396484375 164.5183715820312 140.7688140869141 162.7982025146484 143.4105224609375 C 160.9938812255859 146.1815795898438 160.0000305175781 149.8856811523438 160.0000305175781 153.8403930664062 C 160.0000305175781 157.3210144042969 160.7997894287109 160.6573944091797 162.2058258056641 163.2668609619141 C 162.4047241210938 162.5846405029297 162.7870635986328 161.9733734130859 163.3091125488281 161.5028991699219 C 163.3533325195312 161.4628143310547 163.3990936279297 161.4251251220703 163.4449615478516 161.3861999511719 C 162.5268707275391 159.2369079589844 162.0269622802734 156.5971374511719 162.0269622802734 153.8403930664062 C 162.0269622802734 146.8583831787109 165.1434020996094 141.38916015625 169.1212463378906 141.38916015625 C 172.4079284667969 141.38916015625 175.1215057373047 145.0866546630859 175.9531555175781 150.4254760742188 C 176.5379638671875 150.0618286132812 177.1879272460938 149.8220062255859 177.8649597167969 149.7204437255859 C 176.7248077392578 143.6267700195312 173.1581420898438 139.31396484375 169.1212463378906 139.31396484375 M 169.1212463378906 137.31396484375 C 171.6698455810547 137.31396484375 174.1530914306641 138.6049041748047 176.1135559082031 140.9489898681641 C 177.9211730957031 143.1103210449219 179.2065887451172 146.0162506103516 179.8308410644531 149.3526306152344 L 180.2121734619141 151.3907165527344 L 178.1616516113281 151.6983184814453 C 177.7523956298828 151.7597045898438 177.3646697998047 151.9028930664062 177.00927734375 152.1239013671875 L 174.4422607421875 153.7201232910156 L 173.9769897460938 150.7333221435547 C 173.6218109130859 148.4531860351562 172.8691101074219 146.4542999267578 171.8575439453125 145.1048583984375 C 171.2708129882812 144.3221588134766 170.31982421875 143.38916015625 169.1212463378906 143.38916015625 C 168.4411163330078 143.38916015625 167.1078491210938 143.7266082763672 165.8201293945312 145.9866333007812 C 164.6637878417969 148.0160980224609 164.0269622802734 150.8052825927734 164.0269622802734 153.8403930664062 C 164.0269622802734 156.3017730712891 164.4734497070312 158.7025909423828 165.2841949462891 160.6005554199219 L 165.8635101318359 161.9567718505859 L 164.7391204833984 162.9110412597656 L 164.7012176513672 162.9430694580078 C 164.6847229003906 162.9569702148438 164.6681213378906 162.9704895019531 164.6521301269531 162.9848785400391 L 164.6500244140625 162.9868011474609 L 164.6480407714844 162.9885864257812 C 164.4015197753906 163.2107543945312 164.2209625244141 163.5005493164062 164.1258850097656 163.8266448974609 L 162.7599945068359 168.5116882324219 L 160.4451446533203 164.2155609130859 C 158.8683929443359 161.2892608642578 158.0000305175781 157.6046142578125 158.0000305175781 153.8403930664062 C 158.0000305175781 149.5029296875 159.1088409423828 145.4112854003906 161.1221923828125 142.3192138671875 C 163.2239227294922 139.0915222167969 166.0647125244141 137.31396484375 169.1212463378906 137.31396484375 Z" stroke="none" fill="#a7a7a7"/>
      </g>
      <g id="Path_10" data-name="Path 10" transform="translate(-17.197 -105.033)" fill="#eaeaea">
        <path d="M 24.47663307189941 135.9597625732422 L 22.46357345581055 132.7229309082031 C 22.14860343933105 132.2164764404297 21.83979225158691 131.6893157958984 21.54573249816895 131.1561126708984 L 21.54452323913574 131.1539154052734 L 21.5433235168457 131.1517028808594 C 20.4334831237793 129.1151885986328 19.49197196960449 126.9653625488281 18.74495315551758 124.7619171142578 L 18.66698265075684 124.5319519042969 L 18.70316314697266 124.2918395996094 C 19.34659385681152 120.0216064453125 20.69200325012207 115.9295806884766 22.7020320892334 112.1294174194336 L 23.3642520904541 110.8774185180664 L 24.32243347167969 111.9204711914062 C 24.93379211425781 112.5859985351562 25.60490226745605 113.2929763793945 26.31711196899414 114.0217666625977 C 26.6026725769043 114.3129501342773 26.90899276733398 114.5923461914062 27.22632217407227 114.8509521484375 L 27.83863258361816 115.3499374389648 L 27.49502372741699 116.0611572265625 C 25.39053344726562 120.4172210693359 24.27816200256348 125.4407196044922 24.27816200256348 130.5885925292969 C 24.27816200256348 131.1098937988281 24.28948211669922 131.6357574462891 24.31180381774902 132.1515655517578 L 24.47663307189941 135.9597625732422 Z" stroke="none"/>
        <path d="M 23.58599281311035 112.5969848632812 C 21.63418197631836 116.2870788574219 20.31693267822266 120.2933731079102 19.69200325012207 124.4408340454102 C 20.42258262634277 126.5957794189453 21.33584213256836 128.6812438964844 22.4213924407959 130.6731872558594 C 22.70858383178711 131.1939392089844 23.00566291809082 131.7010498046875 23.31274223327637 132.1948089599609 C 23.28968238830566 131.6620178222656 23.27816200256348 131.1266174316406 23.27816200256348 130.5885925292969 C 23.27816200256348 125.2378387451172 24.43338203430176 120.0996246337891 26.59460258483887 115.6261444091797 C 26.24762344360352 115.3433837890625 25.91621208190918 115.0411834716797 25.60191345214844 114.7206878662109 C 24.87880325317383 113.9807434082031 24.20687294006348 113.2728576660156 23.58599281311035 112.5969848632812 M 23.14250373840332 109.1578826904297 L 25.05885314941406 111.2439575195312 C 25.66349220275879 111.9021606445312 26.32745361328125 112.6015930175781 27.03230285644531 113.3228302001953 C 27.29071235656738 113.5863342285156 27.56934356689453 113.8404846191406 27.8580436706543 114.0757598876953 L 29.08266258239746 115.0737152099609 L 28.39545249938965 116.4961700439453 C 26.35610198974609 120.7173843383789 25.27816200256348 125.5904693603516 25.27816200256348 130.5885925292969 C 25.27816200256348 131.0955505371094 25.2891731262207 131.6068572998047 25.31087303161621 132.1083374023438 L 25.64052200317383 139.7247314453125 L 21.61440277099609 133.2510375976562 C 21.29024314880371 132.7298278808594 20.9725227355957 132.1874694824219 20.67006301879883 131.6390380859375 L 20.66764259338379 131.6346435546875 L 20.66524314880371 131.6302337646484 C 19.52802276611328 129.5434875488281 18.56330299377441 127.3406677246094 17.79789352416992 125.0829849243164 L 17.6419734954834 124.6230697631836 L 17.71432304382324 124.1428451538086 C 18.37457275390625 119.7609939575195 19.75527381896973 115.5617828369141 21.81806373596191 111.6618804931641 L 23.14250373840332 109.1578826904297 Z" stroke="none" fill="#a7a7a7"/>
      </g>
      <g id="Ellipse_2" data-name="Ellipse 2" transform="translate(50.673 36.969)" fill="#eaeaea" stroke="#a7a7a7" stroke-width="2">
        <ellipse cx="1.013" cy="1.038" rx="1.013" ry="1.038" stroke="none"/>
        <ellipse cx="1.013" cy="1.038" rx="2.013" ry="2.038" fill="none"/>
      </g>
      <g id="Ellipse_3" data-name="Ellipse 3" transform="translate(54.727 36.969)" fill="#eaeaea" stroke="#a7a7a7" stroke-width="2">
        <ellipse cx="1.013" cy="1.038" rx="1.013" ry="1.038" stroke="none"/>
        <ellipse cx="1.013" cy="1.038" rx="2.013" ry="2.038" fill="none"/>
      </g>
      <g id="Ellipse_4" data-name="Ellipse 4" transform="translate(52.7 41.12)" fill="#eaeaea" stroke="#a7a7a7" stroke-width="2">
        <ellipse cx="1.013" cy="1.038" rx="1.013" ry="1.038" stroke="none"/>
        <ellipse cx="1.013" cy="1.038" rx="2.013" ry="2.038" fill="none"/>
      </g>
      <g id="Ellipse_5" data-name="Ellipse 5" transform="translate(46.62 36.969)" fill="#eaeaea" stroke="#a7a7a7" stroke-width="2">
        <ellipse cx="1.013" cy="1.038" rx="1.013" ry="1.038" stroke="none"/>
        <ellipse cx="1.013" cy="1.038" rx="2.013" ry="2.038" fill="none"/>
      </g>
      <g id="Path_11" data-name="Path 11" transform="translate(-279.461 -211.834)" fill="#eaeaea">
        <path d="M 323.2500610351562 252.82080078125 L 322.6505737304688 252.5274963378906 C 321.9508972167969 252.1851654052734 320.95654296875 251.4586791992188 320.1928405761719 249.9417572021484 C 319.4013366699219 248.3695831298828 319 246.2408905029297 319 243.6148376464844 C 319 234.8409423828125 323.4878234863281 234.3433532714844 323.9995422363281 234.3155059814453 L 324.0546875 234.3125 L 324.1098327636719 234.3155975341797 C 324.5891723632812 234.3424530029297 328.80126953125 234.8066101074219 329.0916748046875 242.7245788574219 L 329.1182556152344 243.4489898681641 L 328.4380187988281 243.6995849609375 C 328.4162902832031 243.7075958251953 328.3946533203125 243.7159881591797 328.3731689453125 243.7247161865234 C 327.3195495605469 244.1536865234375 326.8058776855469 245.3876495361328 327.2283020019531 246.4753570556641 L 327.6274719238281 247.5031433105469 L 326.5657043457031 247.8003540039062 C 325.6768188476562 248.0491790771484 325.0551452636719 248.8886108398438 325.0538940429688 249.8417205810547 C 325.0538024902344 250.1105346679688 325.1032104492188 250.3743591308594 325.2007446289062 250.6249237060547 L 325.6011962890625 251.6534576416016 L 324.5382385253906 251.9507751464844 C 324.2504577636719 252.0312805175781 323.9782104492188 252.1796112060547 323.7509460449219 252.3797302246094 L 323.2500610351562 252.82080078125 Z" stroke="none"/>
        <path d="M 323.0900573730469 251.6292419433594 C 323.4315795898438 251.3284912109375 323.8343200683594 251.1092834472656 324.2688903808594 250.9877319335938 C 324.1267395019531 250.6226196289062 324.0537414550781 250.2332763671875 324.0538940429688 249.8403930664062 C 324.0557556152344 248.436767578125 324.9737243652344 247.2075500488281 326.296142578125 246.8373718261719 C 325.6763000488281 245.2413635253906 326.4374389648438 243.4331359863281 327.9962768554688 242.7984619140625 C 328.028076171875 242.7855224609375 328.0601196289062 242.7731018066406 328.0923461914062 242.76123046875 C 327.8324584960938 235.6755981445312 324.3524475097656 235.3307495117188 324.0538940429688 235.3140258789062 C 323.7437744140625 235.3309020996094 320 235.7008972167969 320 243.6148376464844 C 320 249.2004699707031 321.8660888671875 251.0303955078125 323.0900573730469 251.6292419433594 M 323.4100646972656 254.0123748779297 L 322.2110595703125 253.4257507324219 C 321.3734741210938 253.0159301757812 320.1884460449219 252.1568298339844 319.2996520996094 250.3914489746094 C 318.4372863769531 248.6784820556641 318 246.3984985351562 318 243.6148376464844 C 318 239.7966003417969 318.8153991699219 236.9538879394531 320.4235534667969 235.1656799316406 C 321.8774108886719 233.5490264892578 323.4866333007812 233.3419494628906 323.9451904296875 233.3169860839844 L 324.0554809570312 233.3109741210938 L 324.1658020019531 233.3171539306641 C 324.5971069335938 233.3413238525391 326.1141967773438 233.5339813232422 327.5268859863281 234.9980621337891 C 329.1009826660156 236.6294708251953 329.9636840820312 239.2167053222656 330.0910034179688 242.6879272460938 L 330.1441345214844 244.1367492675781 L 328.7837219238281 244.637939453125 C 328.7724304199219 244.64208984375 328.76123046875 244.6464385986328 328.7500915527344 244.6509704589844 C 328.1991271972656 244.8752899169922 327.9344482421875 245.5313568115234 328.1604919433594 246.1133270263672 L 328.9588012695312 248.1688995361328 L 326.8352661132812 248.7633361816406 C 326.3758850097656 248.8919372558594 326.0545654296875 249.3359222412109 326.0538940429688 249.8430480957031 C 326.0538330078125 249.9861602783203 326.080322265625 250.1277923583984 326.1326293945312 250.2621307373047 L 326.9335021972656 252.3191986083984 L 324.8076171875 252.913818359375 C 324.6637573242188 252.9540405273438 324.5269165039062 253.0288848876953 324.4118041992188 253.1302185058594 L 323.4100646972656 254.0123748779297 Z" stroke="none" fill="#a7a7a7"/>
      </g>
      <g id="Ellipse_6" data-name="Ellipse 6" transform="translate(44.593 41.12)" fill="#eaeaea" stroke="#a7a7a7" stroke-width="2">
        <ellipse cx="1.013" cy="1.038" rx="1.013" ry="1.038" stroke="none"/>
        <ellipse cx="1.013" cy="1.038" rx="2.013" ry="2.038" fill="none"/>
      </g>
      <g id="Ellipse_7" data-name="Ellipse 7" transform="translate(48.646 32.819)" fill="#eaeaea" stroke="#a7a7a7" stroke-width="2">
        <ellipse cx="1.013" cy="1.038" rx="1.013" ry="1.038" stroke="none"/>
        <ellipse cx="1.013" cy="1.038" rx="2.013" ry="2.038" fill="none"/>
      </g>
      <g id="Ellipse_8" data-name="Ellipse 8" transform="translate(48.646 41.12)" fill="#eaeaea" stroke="#a7a7a7" stroke-width="2">
        <ellipse cx="1.013" cy="1.038" rx="1.013" ry="1.038" stroke="none"/>
        <ellipse cx="1.013" cy="1.038" rx="2.013" ry="2.038" fill="none"/>
      </g>
    </g>
  </g>
</svg>
