<svg xmlns="http://www.w3.org/2000/svg" width="213.603" height="57.558" viewBox="0 0 213.603 57.558">
  <defs>
    <style>
      .cls-1, .cls-2, .cls-3 {
        fill: #eaeaea;
      }

      .cls-3 {
        stroke: #1583d8;
        stroke-width: 2px;
      }

      .cls-4, .cls-5 {
        stroke: none;
      }

      .cls-5 {
        fill: #1583d8;
      }

      .cls-6 {
        fill: none;
      }
    </style>
  </defs>
  <g id="Logo" transform="translate(2)">
    <path id="Path_12" data-name="Path 12" class="cls-1" d="M1.739,12.442V47.915h8.954v-9.39l1.877-2.981,5.247,12.371H28.022L18.3,27.943l8.665-15.5H17.432L10.789,26.055h-.1V12.442Zm26.716,8.6V41.308a10.239,10.239,0,0,0,.53,3.552A5.54,5.54,0,0,0,30.429,47.1a4.676,4.676,0,0,0,2.142,1.093,12.293,12.293,0,0,0,2.672.273q4.669,0,6.306-3.826h.1v3.279h8.376V21.037H41.356V38.774a4.653,4.653,0,0,1-.481,2.434,2.17,2.17,0,0,1-3.273,0,4.653,4.653,0,0,1-.481-2.434V21.037ZM62.3,34.451q0-2.186.1-3.6a10.536,10.536,0,0,1,.361-2.285,2.257,2.257,0,0,1,.746-1.217A2,2,0,0,1,64.7,27a2.087,2.087,0,0,1,1.252.348,2.257,2.257,0,0,1,.746,1.217,10.536,10.536,0,0,1,.361,2.285q.1,1.416.1,3.6t-.1,3.627a10.625,10.625,0,0,1-.361,2.31,2.257,2.257,0,0,1-.746,1.217,2.087,2.087,0,0,1-1.252.348,2,2,0,0,1-1.2-.348,2.257,2.257,0,0,1-.746-1.217,10.624,10.624,0,0,1-.361-2.31Q62.3,36.638,62.3,34.451ZM53.631,21.037V56.511H62.3V44.885h.1a4.522,4.522,0,0,0,2.142,2.832,7.181,7.181,0,0,0,3.3.745,8.388,8.388,0,0,0,3.3-.621,5.659,5.659,0,0,0,2.5-2.186,12.46,12.46,0,0,0,1.613-4.149,30.263,30.263,0,0,0,.578-6.459q0-7.452-1.733-11.079a6.168,6.168,0,0,0-6.065-3.627A5.8,5.8,0,0,0,62.1,24.714h-.1V21.037ZM87.327,34.5q0-2.186.1-3.627a10.625,10.625,0,0,1,.361-2.31,2.257,2.257,0,0,1,.746-1.217,2,2,0,0,1,1.2-.348,2.087,2.087,0,0,1,1.252.348,2.257,2.257,0,0,1,.746,1.217,10.625,10.625,0,0,1,.361,2.31q.1,1.441.1,3.627,0,2.136-.1,3.577a10.625,10.625,0,0,1-.361,2.31,2.257,2.257,0,0,1-.746,1.217,2.087,2.087,0,0,1-1.252.348,2,2,0,0,1-1.2-.348,2.257,2.257,0,0,1-.746-1.217,10.625,10.625,0,0,1-.361-2.31Q87.327,36.638,87.327,34.5ZM78.663,12.442V47.915h8.376V44.239h.1a6.6,6.6,0,0,0,2.214,3.229,6.264,6.264,0,0,0,3.707.994,6.19,6.19,0,0,0,6.065-3.527q1.733-3.527,1.733-11.03a31.914,31.914,0,0,0-.554-6.484,12.5,12.5,0,0,0-1.564-4.173,5.819,5.819,0,0,0-2.5-2.236,8.134,8.134,0,0,0-3.37-.671,6.647,6.647,0,0,0-3.3.82,4.835,4.835,0,0,0-2.142,2.906h-.1V12.442ZM111.444,34.5q0-2.534.1-4.173a11.5,11.5,0,0,1,.385-2.584,2.511,2.511,0,0,1,.746-1.292,1.9,1.9,0,0,1,1.179-.348,2,2,0,0,1,1.2.348,2.311,2.311,0,0,1,.746,1.292,12.754,12.754,0,0,1,.361,2.584q.1,1.64.1,4.173t-.1,4.149a12.65,12.65,0,0,1-.361,2.559,2.311,2.311,0,0,1-.746,1.292,2,2,0,0,1-1.2.348,1.9,1.9,0,0,1-1.179-.348,2.511,2.511,0,0,1-.746-1.292,11.4,11.4,0,0,1-.385-2.559Q111.444,37.035,111.444,34.5Zm13.478,0a45.316,45.316,0,0,0-.313-5.49,11.873,11.873,0,0,0-1.42-4.5,7.691,7.691,0,0,0-3.321-3.055,13.493,13.493,0,0,0-6.017-1.118A12.041,12.041,0,0,0,108,21.559a8.591,8.591,0,0,0-3.346,3.2,12.374,12.374,0,0,0-1.516,4.521,36.587,36.587,0,0,0-.361,5.167,45.316,45.316,0,0,0,.313,5.49,11.655,11.655,0,0,0,1.42,4.471,7.445,7.445,0,0,0,3.321,2.981,14.039,14.039,0,0,0,6.017,1.068,12.471,12.471,0,0,0,5.849-1.168,8.308,8.308,0,0,0,3.346-3.13,12.144,12.144,0,0,0,1.516-4.5A36.586,36.586,0,0,0,124.923,34.5Zm12.131,8.1a1.812,1.812,0,0,1-1.54-.795,3.561,3.561,0,0,1-.578-2.136,5.127,5.127,0,0,1,.385-2.161,2.845,2.845,0,0,1,1.4-1.317,6.692,6.692,0,0,1,1.757-.571,1.683,1.683,0,0,0,1.179-.671h.1v3.229a6.9,6.9,0,0,1-.626,3.329A2.2,2.2,0,0,1,137.053,42.6Zm3.225,5.316h8.376a7,7,0,0,1-.674-2.484q-.144-1.441-.144-3.329V28.986a10.579,10.579,0,0,0-.746-4.3,6.3,6.3,0,0,0-2.118-2.633,8.4,8.4,0,0,0-3.273-1.341,21.684,21.684,0,0,0-4.164-.373,17.673,17.673,0,0,0-3.225.323,8.845,8.845,0,0,0-3.225,1.292,7.8,7.8,0,0,0-2.5,2.733,9.416,9.416,0,0,0-1.011,4.7h7.509a5.08,5.08,0,0,1,.626-2.857,2.205,2.205,0,0,1,1.829-.72q2.214,0,2.214,2.484a2.846,2.846,0,0,1-.578,1.913,3.746,3.746,0,0,1-1.974,1.018l-3.418.845a15.5,15.5,0,0,0-3.466,1.217,6.763,6.763,0,0,0-2.214,1.739,6.331,6.331,0,0,0-1.179,2.41,13.157,13.157,0,0,0-.361,3.279,12.3,12.3,0,0,0,.385,3.18,6.428,6.428,0,0,0,1.252,2.484,5.288,5.288,0,0,0,2.238,1.565,9.449,9.449,0,0,0,3.346.522,7.1,7.1,0,0,0,3.586-.894,5.238,5.238,0,0,0,2.287-2.683h.1q.1.845.193,1.59A7.226,7.226,0,0,0,140.279,47.915Zm11.168-26.878V47.915h8.665V33.259q0-2.683,1.276-3.726a5.519,5.519,0,0,1,3.586-1.043q.53,0,1.059.05t1.107.149V20.342h-1.4a5.5,5.5,0,0,0-3.514,1.267,7.179,7.179,0,0,0-2.311,3.7h-.1V21.037ZM176.526,34.5q0-2.186.1-3.627a10.625,10.625,0,0,1,.361-2.31,2.257,2.257,0,0,1,.746-1.217A2.087,2.087,0,0,1,178.981,27a2,2,0,0,1,1.2.348,2.257,2.257,0,0,1,.746,1.217,10.626,10.626,0,0,1,.361,2.31q.1,1.441.1,3.627,0,2.136-.1,3.577a10.626,10.626,0,0,1-.361,2.31,2.257,2.257,0,0,1-.746,1.217,2,2,0,0,1-1.2.348,2.087,2.087,0,0,1-1.252-.348,2.257,2.257,0,0,1-.746-1.217,10.625,10.625,0,0,1-.361-2.31Q176.526,36.638,176.526,34.5Zm4.862-22.059V24.068h-.1a4.835,4.835,0,0,0-2.142-2.906,6.647,6.647,0,0,0-3.3-.82,7.652,7.652,0,0,0-3.273.7,6.1,6.1,0,0,0-2.527,2.285,12.761,12.761,0,0,0-1.613,4.173,29.979,29.979,0,0,0-.578,6.409q0,7.5,1.733,11.03a6.19,6.19,0,0,0,6.065,3.527,6.264,6.264,0,0,0,3.707-.994,6.6,6.6,0,0,0,2.214-3.229h.1v3.677h8.376V12.442Z" transform="translate(21.55 -12.442)"/>
    <g id="cornucopia" transform="translate(0 15.897)">
      <g id="Path_1" data-name="Path 1" class="cls-2" transform="translate(-306.943 -171.768)">
        <path class="cls-4" d="M 348.6430969238281 192.6109924316406 L 347.6418762207031 192.2256469726562 C 347.3763732910156 192.1234588623047 347.0987854003906 192.0648193359375 346.8163146972656 192.0511627197266 C 346.6753540039062 192.0566558837891 346.5340270996094 192.0764007568359 346.3957824707031 192.1099243164062 L 344.7925109863281 192.4988555908203 L 345.1893920898438 190.8975372314453 C 345.7479248046875 188.6441650390625 347.0758056640625 187.0518951416016 348.928466796875 186.4140167236328 C 349.126953125 186.3458251953125 349.332763671875 186.3113403320312 349.540771484375 186.3113403320312 C 350.3667602539062 186.3113403320312 351.0946960449219 186.8466033935547 351.3521423339844 187.6432647705078 C 351.6766052246094 188.6471710205078 351.1384582519531 189.7397766113281 350.1524963378906 190.0788269042969 C 349.6081848144531 190.2661590576172 349.2059631347656 190.7730102539062 348.9572448730469 191.585205078125 L 348.6430969238281 192.6109924316406 Z"/>
        <path class="cls-5" d="M 349.540771484375 187.3113403320312 C 349.4457702636719 187.3113403320312 349.34912109375 187.3268737792969 349.2540283203125 187.3595428466797 C 347.7234802246094 187.8865051269531 346.6358337402344 189.2184753417969 346.1600341796875 191.1381225585938 C 346.3770751953125 191.0854644775391 346.5988159179688 191.0559997558594 346.8216552734375 191.0505065917969 C 347.2248840332031 191.0652465820312 347.6230773925781 191.1469116210938 348.0010681152344 191.2923889160156 C 348.2740783691406 190.4008941650391 348.805419921875 189.4848785400391 349.8273010253906 189.1331939697266 L 349.8273010253906 189.1331787109375 C 350.30224609375 188.9698486328125 350.5588989257812 188.4405517578125 350.4006042480469 187.9507751464844 C 350.2739868164062 187.5590057373047 349.9203186035156 187.3113403320312 349.540771484375 187.3113403320312 M 349.540771484375 185.3113403320312 C 350.8020324707031 185.3113403320312 351.9123840332031 186.1248931884766 352.3037109375 187.3357543945312 C 352.7945861816406 188.8546447753906 351.9754333496094 190.5094146728516 350.4776916503906 191.0244750976562 C 350.1831665039062 191.1258392333984 349.9977111816406 191.6027679443359 349.9134216308594 191.8780212402344 L 349.2851257324219 193.9296264648438 L 347.2826843261719 193.1589202880859 C 347.1311645507812 193.1006011962891 346.9736022949219 193.0650024414062 346.8133544921875 193.0528259277344 C 346.7525024414062 193.0574951171875 346.6915893554688 193.0671691894531 346.631591796875 193.0817260742188 L 343.4249267578125 193.8597564697266 L 344.2187805175781 190.6569519042969 C 344.8616638183594 188.0631713867188 346.4186706542969 186.2205352783203 348.6029357910156 185.4684906005859 C 348.9067993164062 185.3640747070312 349.2219543457031 185.3113403320312 349.540771484375 185.3113403320312 Z"/>
      </g>
      <g id="Path_2" data-name="Path 2" class="cls-2" transform="translate(-241.184 -214.164)">
        <path class="cls-4" d="M 275.6219787597656 251.2723388671875 L 275.5737915039062 251.2701110839844 C 275.326171875 251.2586669921875 274.031982421875 251.1317901611328 272.8686218261719 249.7540283203125 L 272.5756225585938 249.4070281982422 L 272.6441345214844 248.9580535888672 C 272.7510681152344 248.2571868896484 272.8077697753906 247.5419616699219 272.8127136230469 246.8321075439453 C 272.8119201660156 245.9985198974609 272.53564453125 245.3237915039062 271.9914855957031 244.8265228271484 C 271.8451843261719 244.6937713623047 271.6820983886719 244.5737609863281 271.5093688964844 244.47216796875 L 271.0384521484375 244.1952056884766 L 271.01708984375 243.6492767333984 C 271.0057678222656 243.3598022460938 271.0000305175781 243.0719604492188 271.0000305175781 242.7937316894531 C 271.0000305175781 234.7698974609375 275.1128845214844 234.3397979736328 275.5818481445312 234.3171691894531 L 275.6342468261719 234.3146514892578 L 275.6866455078125 234.3176116943359 C 275.8655700683594 234.3277587890625 276.8079833984375 234.4201507568359 277.7928466796875 235.2450103759766 L 278.4608764648438 235.8045043945312 L 277.9980163574219 236.5428009033203 C 277.0871887207031 237.9956970214844 276.6253662109375 240.0987396240234 276.6253662109375 242.7934875488281 C 276.6253662109375 245.4793701171875 277.0884399414062 247.5829315185547 278.001708984375 249.0457611083984 L 278.4607238769531 249.7810211181641 L 277.7981262207031 250.3397979736328 C 276.8350219726562 251.1519927978516 275.9258728027344 251.2570648193359 275.670166015625 251.2699279785156 L 275.6219787597656 251.2723388671875 Z"/>
        <path class="cls-5" d="M 275.6300354003906 235.3160095214844 C 275.3881530761719 235.3276824951172 272.0000305175781 235.6220855712891 272.0000305175781 242.7937316894531 C 272.0000305175781 243.0716857910156 272.0059204101562 243.3440551757812 272.0163269042969 243.6101989746094 C 272.2479858398438 243.7464294433594 272.4657897949219 243.9065856933594 272.6660461425781 244.0883178710938 C 273.4161682128906 244.7737731933594 273.8127136230469 245.7240600585938 273.8127136230469 246.8356628417969 C 273.8075866699219 247.5969848632812 273.7474365234375 248.3568115234375 273.6326904296875 249.10888671875 C 274.5491943359375 250.1943054199219 275.5373229980469 250.2673645019531 275.6199645996094 250.2711791992188 C 275.7074584960938 250.2667846679688 276.4002075195312 250.2105407714844 277.1534423828125 249.5753479003906 C 276.1402282714844 247.9524230957031 275.6253662109375 245.6740112304688 275.6253662109375 242.7934875488281 C 275.6253662109375 239.8958587646484 276.1389770507812 237.6255645751953 277.1507568359375 236.0116424560547 C 276.3957824707031 235.3793334960938 275.6936950683594 235.3196258544922 275.6300354003906 235.3160095214844 M 275.6385803222656 233.3132629394531 L 275.7435913085938 233.3192291259766 C 276.0726013183594 233.3379516601562 277.2390747070312 233.4768218994141 278.4349060058594 234.4783630371094 L 279.77099609375 235.5973663330078 L 278.8453063964844 237.0739593505859 C 278.0357971191406 238.3652191162109 277.6253662109375 240.2895355224609 277.6253662109375 242.7934875488281 C 277.6253662109375 245.2892303466797 278.0373840332031 247.2146148681641 278.8499755859375 248.5161895751953 L 279.7680358886719 249.9866943359375 L 278.4427795410156 251.1042633056641 C 277.2403564453125 252.1182708740234 276.0548706054688 252.2518768310547 275.7201843261719 252.2686614990234 L 275.6240234375 252.2734832763672 L 275.5278625488281 252.2690582275391 C 274.60009765625 252.2262725830078 273.2135925292969 251.7126007080078 272.1045837402344 250.3991851806641 L 271.5185546875 249.7051696777344 L 271.6555786132812 248.8072204589844 C 271.7550048828125 248.1554565429688 271.8078918457031 247.4903564453125 271.8127136230469 246.8301544189453 C 271.8116149902344 246.2840118408203 271.6502685546875 245.8707733154297 271.3195495605469 245.5671539306641 C 271.2219848632812 245.4789123535156 271.1152954101562 245.4005279541016 271.00244140625 245.3341369628906 L 270.0605773925781 244.7801971435547 L 270.0178527832031 243.6883697509766 C 270.0060424804688 243.3859252929688 270.0000305175781 243.0849304199219 270.0000305175781 242.7937316894531 C 270.0000305175781 239.2877502441406 270.753662109375 236.6754913330078 272.2399291992188 235.0295104980469 C 273.5997009277344 233.5236511230469 275.1047058105469 233.3390502929688 275.5335693359375 233.3183288574219 L 275.6385803222656 233.3132629394531 Z"/>
      </g>
      <g id="Path_3" data-name="Path 3" class="cls-2" transform="translate(-170.248 -157.64)">
        <path class="cls-4" d="M 192.4934387207031 187.8223724365234 L 192.1495208740234 186.9901733398438 C 191.3975219726562 185.1705017089844 191.0000305175781 182.98193359375 191.0000305175781 180.6611175537109 C 191.0000305175781 177.9087982177734 191.5675506591797 175.3195343017578 192.5980529785156 173.3703308105469 C 193.6258087158203 171.4278717041016 195.0595092773438 170.3139801025391 196.5317230224609 170.3139801025391 C 197.9111175537109 170.3139801025391 199.2291870117188 171.2584838867188 200.2431182861328 172.9734954833984 C 201.1827239990234 174.5627288818359 201.8056793212891 176.7269744873047 201.9972381591797 179.0675354003906 L 202.0270690917969 179.4319915771484 L 201.8147583007812 179.7297058105469 C 200.7765960693359 181.185546875 200.2501983642578 183.3856658935547 200.2501983642578 186.2689666748047 C 200.2501983642578 186.2907257080078 200.25048828125 186.3123016357422 200.2507476806641 186.3338470458984 C 200.2511291503906 186.3635864257812 200.25146484375 186.3932952880859 200.25146484375 186.4231719970703 L 200.25146484375 187.6270751953125 L 199.0680084228516 187.4062042236328 C 198.5611724853516 187.3115997314453 198.0427551269531 187.2636413574219 197.5271911621094 187.2636413574219 C 197.4642181396484 187.2636413574219 197.4011840820312 187.2643432617188 197.3381958007812 187.2657775878906 L 196.5298614501953 187.2839508056641 L 196.5245971679688 187.2617797851562 L 195.4207153320312 187.2652130126953 C 194.7226104736328 187.2673645019531 194.0282745361328 187.3690032958984 193.3569946289062 187.5672912597656 L 192.4934387207031 187.8223724365234 Z"/>
        <path class="cls-5" d="M 196.5317230224609 171.3139801025391 C 195.4421997070312 171.3139801025391 194.3305816650391 172.2340850830078 193.4821166992188 173.8377075195312 C 192.5264129638672 175.6454315185547 192.0000305175781 178.0684509277344 192.0000305175781 180.6611175537109 C 192.0000305175781 182.8491973876953 192.3784027099609 184.9257507324219 193.0737152099609 186.6082458496094 C 193.8359527587891 186.3831024169922 194.6246795654297 186.2676696777344 195.4176177978516 186.2652130126953 C 195.0707244873047 185.3489685058594 194.3799896240234 184.4557189941406 194.0611572265625 184.1077880859375 C 193.7232055664062 183.7268981933594 193.7487030029297 183.1356658935547 194.1179351806641 182.7871246337891 C 194.2915344238281 182.6233215332031 194.5107879638672 182.5420227050781 194.7296142578125 182.5420074462891 C 194.9642028808594 182.5419921875 195.1982879638672 182.6353912353516 195.3753814697266 182.8206787109375 C 195.5535736083984 183.0140380859375 196.9002838134766 184.5188140869141 197.3157196044922 186.2660217285156 C 197.3861999511719 186.2644348144531 197.4567260742188 186.2636413574219 197.5271911621094 186.2636413574219 C 198.1052856445312 186.2636413574219 198.6823120117188 186.3169403076172 199.25146484375 186.4231719970703 C 199.25146484375 186.3716430664062 199.2501983642578 186.3207244873047 199.2501983642578 186.2689666748047 C 199.2501983642578 183.1632385253906 199.8393402099609 180.7775115966797 201.0005798339844 179.1491088867188 C 200.8208770751953 176.9534606933594 200.2510375976562 174.9517822265625 199.3823089599609 173.4824066162109 C 198.5555877685547 172.0840606689453 197.5433349609375 171.3139801025391 196.5317230224609 171.3139801025391 M 196.5317230224609 169.3139801025391 C 198.2790069580078 169.3139801025391 199.9027709960938 170.4328765869141 201.1039276123047 172.4645690917969 C 202.1337432861328 174.2064056396484 202.7872924804688 176.4614715576172 202.9939117431641 178.9859771728516 L 203.0535583496094 179.7148742675781 L 202.6289520263672 180.3103332519531 C 201.7140808105469 181.5932464599609 201.2501983642578 183.5980224609375 201.2501983642578 186.2689666748047 C 201.2501983642578 186.2865753173828 201.2504577636719 186.3040313720703 201.2506713867188 186.3214721679688 C 201.2510986328125 186.3553314208984 201.25146484375 186.3891448974609 201.25146484375 186.4231719970703 L 201.25146484375 188.8309478759766 L 198.8845520019531 188.3892211914062 C 198.4380187988281 188.3058929443359 197.9813385009766 188.2636413574219 197.5271911621094 188.2636413574219 C 197.4717559814453 188.2636413574219 197.416259765625 188.2642669677734 197.3608245849609 188.2655181884766 L 195.7440490722656 188.3019866943359 L 195.7350616455078 188.2642364501953 L 195.4238128662109 188.2651977539062 C 194.8206176757812 188.2670745849609 194.2205352783203 188.3549346923828 193.6402587890625 188.5263214111328 L 191.9131469726562 189.0364532470703 L 191.225341796875 187.3721160888672 C 190.4237365722656 185.4324188232422 190.0000305175781 183.1118011474609 190.0000305175781 180.6611175537109 C 190.0000305175781 177.7488250732422 190.6087341308594 174.9935760498047 191.7140045166016 172.9029541015625 C 192.2600708007812 171.8708801269531 192.9084320068359 171.0402984619141 193.6413726806641 170.4337158203125 C 194.5264892578125 169.7011871337891 195.5259704589844 169.3139801025391 196.5317230224609 169.3139801025391 Z"/>
      </g>
      <g id="Path_4" data-name="Path 4" class="cls-2" transform="translate(-170.248 -284.799)">
        <path class="cls-4" d="M 198.2529144287109 325.4595947265625 C 198.2528686523438 325.4595947265625 198.2528839111328 325.4595947265625 198.2528533935547 325.4595947265625 C 197.6982421875 325.4595642089844 197.1345672607422 325.2400817871094 196.53173828125 324.7889404296875 C 195.9290618896484 325.239990234375 195.3653411865234 325.45947265625 194.8106231689453 325.45947265625 C 194.4842224121094 325.45947265625 194.1786956787109 325.3837585449219 193.8765411376953 325.2279968261719 C 192.8643951416016 324.7061157226562 192.1958465576172 323.339111328125 191.813232421875 322.2842407226562 C 191.2888336181641 320.8385009765625 191.0000305175781 319.1290893554688 191.0000305175781 317.4709167480469 C 191.0000305175781 316.6106262207031 191.2888031005859 315.9096984863281 191.8583374023438 315.3876037597656 C 192.8423156738281 314.4855651855469 194.4311370849609 314.2962341308594 195.5907440185547 314.2962341308594 C 195.9075927734375 314.2962341308594 196.2202911376953 314.3116760253906 196.479736328125 314.3399047851562 L 196.4910430908203 314.3399047851562 L 196.53173828125 314.3450012207031 L 196.5724487304688 314.3399047851562 L 196.5825653076172 314.3399047851562 C 196.8307952880859 314.3125 197.1361389160156 314.2975158691406 197.4513244628906 314.2975158691406 C 198.6199340820312 314.2975158691406 200.2192687988281 314.4861450195312 201.2021636962891 315.3846435546875 C 201.7734527587891 315.9059448242188 202.0634613037109 316.6080627441406 202.0634613037109 317.4708251953125 C 202.0634613037109 319.1289367675781 201.774658203125 320.8382873535156 201.250244140625 322.2839660644531 C 200.8676910400391 323.338623046875 200.1992645263672 324.7054443359375 199.1873931884766 325.2277526855469 C 198.8851470947266 325.3837585449219 198.5794525146484 325.4595947265625 198.2529144287109 325.4595947265625 Z"/>
        <path class="cls-5" d="M 195.5907287597656 315.2962341308594 C 194.6278533935547 315.2962341308594 193.2667541503906 315.4530944824219 192.5340881347656 316.1247253417969 C 192.1697387695312 316.458740234375 192.0000305175781 316.8865051269531 192.0000305175781 317.4709167480469 C 192.0000305175781 320.8088989257812 193.2304992675781 323.769775390625 194.3347625732422 324.3391418457031 C 194.4558410644531 324.4015808105469 194.6104125976562 324.45947265625 194.8106231689453 324.45947265625 C 195.0974426269531 324.45947265625 195.4779357910156 324.3406677246094 195.9879608154297 323.9461669921875 C 196.1490478515625 323.8215637207031 196.3403930664062 323.7592468261719 196.53173828125 323.7592468261719 C 196.7230834960938 323.7592468261719 196.9144287109375 323.8215637207031 197.0755310058594 323.9461669921875 C 197.5855865478516 324.3406677246094 197.9660339355469 324.4595947265625 198.2528533935547 324.4595947265625 C 198.4529571533203 324.4595947265625 198.6074981689453 324.4017028808594 198.7287292480469 324.3391418457031 C 199.8329772949219 323.7691650390625 201.0634613037109 320.8088073730469 201.0634613037109 317.4708251953125 C 201.0634613037109 316.8852233886719 200.8935089111328 316.4567565917969 200.5274505615234 316.1227111816406 C 199.7930603027344 315.4513854980469 198.406982421875 315.2975463867188 197.4513244628906 315.2975158691406 C 197.1096649169922 315.2975158691406 196.8230285644531 315.3171997070312 196.6408386230469 315.3399047851562 C 196.6388244628906 315.3399047851562 196.6367797851562 315.3399047851562 196.6348266601562 315.3399047851562 C 196.6006164550781 315.3441772460938 196.5661926269531 315.3463439941406 196.5317535400391 315.3463439941406 C 196.497314453125 315.3463439941406 196.462890625 315.3441772460938 196.4286651611328 315.3399047851562 C 196.4267272949219 315.3399047851562 196.4246673583984 315.3399047851562 196.4226379394531 315.3399047851562 C 196.2271575927734 315.3162231445312 195.9342346191406 315.2962341308594 195.5907287597656 315.2962341308594 M 195.5907440185547 313.2962341308594 C 195.919921875 313.2962341308594 196.248291015625 313.3115844726562 196.5309143066406 313.33984375 C 196.8035278320312 313.3124084472656 197.1246032714844 313.2975158691406 197.4513244628906 313.2975158691406 C 198.7970428466797 313.2975463867188 200.6571655273438 313.5315856933594 201.8768463134766 314.6465148925781 C 202.6638031005859 315.3646545410156 203.0634613037109 316.3152770996094 203.0634613037109 317.4708251953125 C 203.0634613037109 319.2422790527344 202.7533721923828 321.0727233886719 202.1903228759766 322.6249694824219 C 201.7468566894531 323.8475341796875 200.9454803466797 325.4456481933594 199.6460723876953 326.1163635253906 C 199.2047882080078 326.3441162109375 198.7360534667969 326.4595947265625 198.2528533935547 326.4595947265625 C 197.6834411621094 326.4595947265625 197.1069946289062 326.2984619140625 196.53173828125 325.9794006347656 C 195.9565277099609 326.2984008789062 195.3801116943359 326.45947265625 194.8106231689453 326.45947265625 C 194.3278198242188 326.45947265625 193.8594055175781 326.3442077636719 193.4183807373047 326.1168518066406 C 192.1183166503906 325.446533203125 191.3167114257812 323.8481140136719 190.8731536865234 322.6252136230469 C 190.3101043701172 321.0729370117188 190.0000305175781 319.242431640625 190.0000305175781 317.4709167480469 C 190.0000305175781 316.3187561035156 190.3979034423828 315.3698120117188 191.1825866699219 314.6504516601562 C 192.403564453125 313.5311889648438 194.2536926269531 313.2962341308594 195.5907440185547 313.2962341308594 Z"/>
      </g>
      <g id="Path_5" data-name="Path 5" class="cls-2" transform="translate(-342.733 -214.162)">
        <path class="cls-4" d="M 388.9567260742188 243.9363403320312 L 388.2770080566406 243.3072967529297 C 388.1066589355469 243.149658203125 387.9114685058594 243.0305480957031 387.6968078613281 242.9532928466797 L 387.058837890625 242.7236480712891 L 387.0360412597656 242.0459747314453 C 386.9573974609375 239.7053527832031 386.499755859375 237.8526000976562 385.6758728027344 236.5391693115234 L 385.2140197753906 235.8029022216797 L 385.8787536621094 235.2429656982422 C 386.8305969238281 234.4411773681641 387.7367858886719 234.3305053710938 387.9918212890625 234.3156890869141 L 388.04931640625 234.3123474121094 L 388.1068115234375 234.3156280517578 C 388.4205627441406 234.3335266113281 389.5270080566406 234.4782409667969 390.5906677246094 235.5885772705078 C 391.8562927246094 236.9097747802734 392.5525207519531 239.0587158203125 392.6599731445312 241.9756927490234 L 392.7144165039062 243.4537811279297 L 391.3224792480469 242.9535827636719 C 391.1436767578125 242.8893432617188 390.9574279785156 242.8567657470703 390.7689208984375 242.8567657470703 C 390.3514404296875 242.8567657470703 389.9490661621094 243.0165863037109 389.635986328125 243.3067626953125 L 388.9567260742188 243.9363403320312 Z"/>
        <path class="cls-5" d="M 388.9562072753906 242.5733489990234 C 389.4617919921875 242.104736328125 390.1099243164062 241.8567657470703 390.7689208984375 241.8567657470703 C 391.0680541992188 241.8567657470703 391.3692932128906 241.9078216552734 391.66064453125 242.0125122070312 C 391.4259948730469 235.6426391601562 388.3199462890625 235.3294219970703 388.0498352050781 235.3140106201172 C 387.9434814453125 235.3201904296875 387.2626037597656 235.3847808837891 386.5230102539062 236.0077819824219 C 387.4428100585938 237.4741058349609 387.9505004882812 239.4832763671875 388.0354919433594 242.0123901367188 C 388.3753967285156 242.1347351074219 388.6882934570312 242.3254241943359 388.9562072753906 242.5733489990234 M 388.9572448730469 245.2993316650391 L 387.5977783203125 244.0412445068359 C 387.5264587402344 243.9752349853516 387.4458312988281 243.9257659912109 387.3581237792969 243.8941955566406 L 386.0821533203125 243.4349060058594 L 386.03662109375 242.0795593261719 C 385.9639587402344 239.917724609375 385.5575866699219 238.2324523925781 384.8287353515625 237.070556640625 L 383.9050598144531 235.5980072021484 L 385.2345275878906 234.4781341552734 C 386.4223022460938 233.4776000976562 387.6008911132812 233.3367156982422 387.933837890625 233.3173828125 L 388.0487976074219 233.3106994628906 L 388.1637573242188 233.3172607421875 C 388.5697021484375 233.3404235839844 389.9965209960938 233.5227661132812 391.3128051757812 234.8968200683594 C 392.7530822753906 236.4003143310547 393.5425415039062 238.7696075439453 393.6593017578125 241.9388732910156 L 393.7681884765625 244.8950347900391 L 390.9843139648438 243.8946838378906 C 390.914306640625 243.8695220947266 390.8418273925781 243.8567657470703 390.7689208984375 243.8567657470703 C 390.6043090820312 243.8567657470703 390.4433898925781 243.9219055175781 390.3157653808594 244.0401916503906 L 388.9572448730469 245.2993316650391 Z"/>
      </g>
      <g id="Path_6" data-name="Path 6" class="cls-2" transform="translate(0 -54.278)">
        <path class="cls-4" d="M 2.114362001419067 68.23541259765625 L 0.1723119914531708 68.22791290283203 C -0.5881780385971069 65.08509063720703 -0.9825980067253113 61.84936141967773 -0.9999880194664001 58.61061477661133 L -0.9999980330467224 58.6079216003418 L -0.9999980330467224 58.60524368286133 C -0.9999980330467224 56.79820251464844 -0.9074079990386963 55.290283203125 -0.7247980237007141 54.12338256835938 L -0.3255880177021027 51.57244491577148 L 1.097561955451965 53.72680282592773 C 1.819101929664612 54.81907272338867 3.112371921539307 56.61855316162109 5.175981998443604 58.98843383789062 L 5.635091781616211 59.51568222045898 L 5.297552108764648 60.12793350219727 C 3.894582033157349 62.67266464233398 2.823601961135864 65.40041351318359 2.114362001419067 68.23541259765625 Z"/>
        <path class="cls-5" d="M 0.2631821632385254 54.27798461914062 L 0.2631821632385254 54.27799987792969 C 0.1212220191955566 55.18511962890625 1.9073486328125e-06 56.55892944335938 1.9073486328125e-06 58.60524368286133 C 0.01699209213256836 61.77032470703125 0.4011721611022949 64.92182159423828 1.144262075424194 67.99272155761719 C 1.874661922454834 65.07313537597656 2.976771831512451 62.26618194580078 4.421822071075439 59.64512252807617 C 2.384592056274414 57.30552673339844 1.066652059555054 55.49428558349609 0.2631821632385254 54.27798461914062 M -0.9143481254577637 48.86688232421875 L 1.931951999664307 53.17562103271484 C 2.636762142181396 54.24256134033203 3.90253210067749 56.00319671630859 5.930141925811768 58.33174133300781 L 6.848361968994141 59.38625335693359 L 6.173272132873535 60.61074447631836 C 4.811982154846191 63.07987213134766 3.772762060165405 65.72684478759766 3.084471940994263 68.47811126708984 L -0.7996377944946289 68.46310424804688 C -1.578318119049072 65.2451171875 -1.982168197631836 61.93206405639648 -1.9999680519104 58.61598205566406 L -1.999998092651367 58.61061477661133 L -1.999998092651367 58.60524368286133 C -1.999998092651367 56.74658203125 -1.903357982635498 55.18665313720703 -1.712768077850342 53.96877288818359 L -0.9143481254577637 48.86688232421875 Z"/>
      </g>
      <g id="Path_7" data-name="Path 7" class="cls-2" transform="translate(-56.749 -134.336)">
        <path class="cls-4" d="M 71.15493774414062 168.9439392089844 L 68.58789825439453 167.1516723632812 C 68.19660186767578 166.8784790039062 67.80815124511719 166.5887756347656 67.43332672119141 166.2905883789062 C 66.00066375732422 165.1442718505859 64.68953704833984 163.8356475830078 63.53414535522461 162.3993072509766 L 63.36227416992188 162.1856536865234 L 63.32342529296875 161.9142150878906 C 63.10822296142578 160.4107208251953 62.99940490722656 158.8773803710938 62.99998474121094 157.3568115234375 C 62.99998474121094 152.8153381347656 63.9571647644043 148.3704071044922 65.76805114746094 144.5029296875 L 66.22371673583984 143.5297698974609 L 67.16165161132812 144.0541076660156 C 68.14251708984375 144.6024475097656 69.19442749023438 144.9925079345703 70.28816223144531 145.2134704589844 L 71.55157470703125 145.4687042236328 L 70.99038696289062 146.6290588378906 C 69.44316101074219 149.8281860351562 68.62535095214844 153.5379180908203 68.62535095214844 157.3571929931641 C 68.61484527587891 160.3166046142578 69.11170196533203 163.2217407226562 70.10211181640625 165.9954681396484 L 71.15493774414062 168.9439392089844 Z"/>
        <path class="cls-5" d="M 66.67369079589844 144.9269714355469 C 64.93113708496094 148.6485290527344 63.99998474121094 152.9122619628906 63.99998474121094 157.3571929931641 C 63.99942779541016 158.8348541259766 64.10409545898438 160.3106384277344 64.31333160400391 161.7725372314453 C 65.42509460449219 163.1546325683594 66.68015289306641 164.4072570800781 68.05587768554688 165.5080108642578 C 68.41658782958984 165.7949676513672 68.78479766845703 166.0695343017578 69.16035461425781 166.3317413330078 C 68.13437652587891 163.4584197998047 67.61447143554688 160.4190673828125 67.62535095214844 157.3571929931641 C 67.62535095214844 153.3495941162109 68.49839782714844 149.4848785400391 70.09014892578125 146.1936645507812 C 68.89571380615234 145.9523620605469 67.74375152587891 145.5251770019531 66.67369079589844 144.9269714355469 M 65.77374267578125 142.132568359375 L 67.64961242675781 143.1812438964844 C 68.53985595703125 143.6789093017578 69.49421691894531 144.0328674316406 70.48618316650391 144.2332611083984 L 73.01300048828125 144.7437438964844 L 71.890625 147.0644378662109 C 70.40867614746094 150.1286315917969 69.62535095214844 153.6878204345703 69.62535095214844 157.3571929931641 L 69.62535095214844 157.3607482910156 L 69.62534332275391 157.3643035888672 C 69.61525726318359 160.2040405273438 70.09251403808594 162.9948272705078 71.04388427734375 165.6591949462891 L 73.14951324462891 171.5561370849609 L 68.01542663574219 167.9716033935547 C 67.60713195800781 167.6865386962891 67.20183563232422 167.3842620849609 66.81077575683594 167.0731811523438 L 66.80856323242188 167.0714111328125 L 66.80635833740234 167.0696563720703 C 65.31905364990234 165.8796081542969 63.95596313476562 164.5191650390625 62.75494384765625 163.0261077880859 L 62.41121673583984 162.5987854003906 L 62.33351135253906 162.055908203125 C 62.11160278320312 160.5055084228516 61.99939727783203 158.9243774414062 61.99998474121094 157.3564300537109 C 61.99998474121094 152.6697540283203 62.98979187011719 148.0781860351562 64.86241149902344 144.0788726806641 L 65.77374267578125 142.132568359375 Z"/>
      </g>
      <g id="Ellipse_1" data-name="Ellipse 1" class="cls-3" transform="translate(47.13 29.565)">
        <ellipse class="cls-4" cx="0.906" cy="0.935" rx="0.906" ry="0.935"/>
        <ellipse class="cls-6" cx="0.906" cy="0.935" rx="1.906" ry="1.935"/>
      </g>
      <g id="Path_8" data-name="Path 8" class="cls-2" transform="translate(-99.311 -144.512)">
        <path class="cls-4" d="M 120.7620620727539 181.2653045654297 L 119.2886123657227 180.9266967773438 C 117.4363327026367 180.5010528564453 115.6329574584961 179.8490600585938 113.9285659790039 178.9888610839844 L 113.6331405639648 178.8397521972656 L 113.484977722168 178.5438537597656 C 111.8592758178711 175.2972564697266 110.9999923706055 171.4900512695312 110.9999923706055 167.5338287353516 C 110.9999923706055 163.4360656738281 111.9229888916016 159.5075531005859 113.6692123413086 156.1729736328125 L 113.9721374511719 155.594482421875 L 114.6236190795898 155.6392364501953 C 115.041877746582 155.66796875 115.4664154052734 155.6825256347656 115.8854522705078 155.6825256347656 C 116.8336486816406 155.6825256347656 117.7896423339844 155.6083068847656 118.7268600463867 155.4619293212891 L 121.124267578125 155.0874938964844 L 119.6868057250977 157.0423583984375 C 119.5456619262695 157.2343139648438 119.4060592651367 157.4368133544922 119.2718811035156 157.644287109375 C 117.565299987793 160.2844848632812 116.625358581543 163.7967224121094 116.625358581543 167.5338287353516 C 116.625358581543 171.9275054931641 117.9174957275391 175.9754333496094 120.1704559326172 178.6397247314453 L 120.3576126098633 178.8610382080078 L 120.3973999023438 179.1481323242188 C 120.4259262084961 179.35400390625 120.45947265625 179.5655212402344 120.4970855712891 179.7768402099609 L 120.7620620727539 181.2653045654297 Z"/>
        <path class="cls-5" d="M 118.8811721801758 156.449951171875 C 117.8890838623047 156.6048889160156 116.8876037597656 156.6825256347656 115.8854522705078 156.6825256347656 C 115.4418716430664 156.6825256347656 114.9982604980469 156.6673278808594 114.5550918579102 156.6368865966797 C 112.907356262207 159.7833862304688 111.9999923706055 163.5783233642578 111.9999923706055 167.5338287353516 C 111.9999923706055 171.3684997558594 112.8411865234375 175.0247344970703 114.3791427612305 178.0961151123047 C 116.0135192871094 178.9209899902344 117.7365875244141 179.5439758300781 119.512565612793 179.9521026611328 C 119.4725723266602 179.7274017333984 119.4373321533203 179.5051879882812 119.406867980957 179.2854156494141 C 117.0007476806641 176.4400177001953 115.625358581543 172.1778411865234 115.625358581543 167.5338287353516 C 115.625358581543 163.6062622070312 116.6223602294922 159.9011383056641 118.4321975708008 157.1012115478516 C 118.5778884887695 156.8759460449219 118.7275619506836 156.6588439941406 118.8811721801758 156.449951171875 M 123.367546081543 153.7250061035156 L 120.4924163818359 157.6347961425781 C 120.3631210327148 157.8106231689453 120.2349853515625 157.9965362548828 120.111572265625 158.1873626708984 C 118.5084075927734 160.6675415039062 117.625358581543 163.9869995117188 117.625358581543 167.5338287353516 C 117.625358581543 171.69482421875 118.8313293457031 175.5074157714844 120.9340515136719 177.9940032958984 L 121.308349609375 178.4366455078125 L 121.3879318237305 179.0108489990234 C 121.4147109985352 179.2040710449219 121.4462280273438 179.4028167724609 121.4816055297852 179.6015777587891 L 122.0115509033203 182.5784912109375 L 119.0646514892578 181.9013061523438 C 117.1338882446289 181.4576110839844 115.254280090332 180.7780914306641 113.4780120849609 179.8816070556641 L 112.8871459960938 179.5834045410156 L 112.5908126831055 178.9915924072266 C 110.895881652832 175.6067047119141 109.9999923706055 171.6446838378906 109.9999923706055 167.5338287353516 C 109.9999923706055 163.275146484375 110.9624481201172 159.1862030029297 112.7833251953125 155.7090759277344 L 113.3891983032227 154.5520935058594 L 114.692138671875 154.6415863037109 C 115.0876312255859 154.6687622070312 115.4891204833984 154.6825256347656 115.8854598999023 154.6825256347656 C 116.7821426391602 154.6825256347656 117.6862106323242 154.6123352050781 118.5725402832031 154.4739074707031 L 123.367546081543 153.7250061035156 Z"/>
      </g>
      <g id="Path_9" data-name="Path 9" class="cls-2" transform="translate(-141.873 -129.378)">
        <path class="cls-4" d="M 162.2500305175781 163.5303344726562 L 161.0909271240234 161.3634338378906 C 159.7425842285156 158.8428039550781 159.0000305175781 155.6595306396484 159.0000305175781 152.3999938964844 C 159.0000305175781 148.6472320556641 159.9456176757812 145.11767578125 161.6626281738281 142.4614562988281 C 163.3914947509766 139.7869110107422 165.6979522705078 138.31396484375 168.1571197509766 138.31396484375 C 170.2001190185547 138.31396484375 172.2068634033203 139.3758239746094 173.8077087402344 141.3039398193359 C 175.3367462158203 143.1455535888672 176.4267120361328 145.6359558105469 176.9597930908203 148.5059509277344 L 177.1486663818359 149.5228118896484 L 176.1260375976562 149.6773376464844 C 175.65380859375 149.7487030029297 175.2069244384766 149.9148406982422 174.7977600097656 150.171142578125 L 173.5107269287109 150.9773864746094 L 173.2786407470703 149.4765167236328 C 172.9411773681641 147.2943420410156 172.2147369384766 145.3661041259766 171.2331085205078 144.0470123291016 C 170.6004333496094 143.1968536376953 169.5532073974609 142.1834106445312 168.1571197509766 142.1834106445312 C 166.8126983642578 142.1834106445312 165.521484375 143.1571960449219 164.5213165283203 144.9253997802734 C 163.4194946289062 146.8732757568359 162.8127136230469 149.5278015136719 162.8127136230469 152.3999938964844 C 162.8127136230469 154.7239837646484 163.2348785400391 156.9994354248047 164.00146484375 158.8072052001953 L 164.2875518798828 159.4818420410156 L 163.7304229736328 159.9578857421875 L 163.6994323730469 159.9842376708984 C 163.6772003173828 160.0031127929688 163.6549987792969 160.0216674804688 163.6335144042969 160.0412902832031 C 163.3012847900391 160.3428955078125 163.0598297119141 160.7324981689453 162.9332580566406 161.1697845458984 L 162.2500305175781 163.5303344726562 Z"/>
        <path class="cls-5" d="M 168.1571197509766 139.31396484375 C 166.0491027832031 139.31396484375 164.040771484375 140.6245422363281 162.50244140625 143.0043334960938 C 160.8888244628906 145.5006103515625 160.0000305175781 148.8374328613281 160.0000305175781 152.3999938964844 C 160.0000305175781 155.5354919433594 160.7152557373047 158.5410461425781 161.9726867675781 160.8917541503906 C 162.1505737304688 160.2771911621094 162.4924926757812 159.7265319824219 162.9593505859375 159.3027038574219 C 162.9989013671875 159.2666015625 163.0398101806641 159.2326354980469 163.0808258056641 159.1976013183594 C 162.2597808837891 157.2614135742188 161.8127136230469 154.8833923339844 161.8127136230469 152.3999938964844 C 161.8127136230469 146.1102905273438 164.5997467041016 141.1834106445312 168.1571197509766 141.1834106445312 C 171.0964202880859 141.1834106445312 173.5231628417969 144.5142517089844 174.2668914794922 149.3236999511719 C 174.7898712158203 148.99609375 175.3711700439453 148.7800598144531 175.9766082763672 148.6885681152344 C 174.9569854736328 143.1991271972656 171.7673187255859 139.31396484375 168.1571197509766 139.31396484375 M 168.1571197509766 137.31396484375 C 170.5028686523438 137.31396484375 172.7828521728516 138.5041046142578 174.5770874023438 140.6651458740234 C 176.2148895263672 142.6377716064453 177.3787994384766 145.2859191894531 177.9429779052734 148.3233337402344 L 178.3207244873047 150.3570556640625 L 176.2754364013672 150.6661224365234 C 175.9395294189453 150.7168731689453 175.6209716796875 150.8354644775391 175.3286285400391 151.0186157226562 L 172.7545776367188 152.6310729980469 L 172.2903747558594 149.6293487548828 C 171.9773864746094 147.6052551269531 171.3169860839844 145.8347625732422 170.4308776855469 144.6440124511719 C 169.9350128173828 143.9777069091797 169.1380157470703 143.1834106445312 168.1571197509766 143.1834106445312 C 166.1022796630859 143.1834106445312 163.8127136230469 146.9685211181641 163.8127136230469 152.3999938964844 C 163.8127136230469 154.5928955078125 164.2066955566406 156.7297058105469 164.922119140625 158.4167938232422 L 165.4942779541016 159.7660980224609 L 164.3800201416016 160.7181549072266 L 164.3465423583984 160.7466430664062 C 164.3331451416016 160.7580261230469 164.3196563720703 160.7691345214844 164.3066101074219 160.7808380126953 C 164.1106109619141 160.9587860107422 163.9688873291016 161.1885070800781 163.8938293457031 161.4478454589844 L 162.5272979736328 166.1687774658203 L 160.2091369628906 161.8350982666016 C 158.7845764160156 159.1719512939453 158.0000305175781 155.8211669921875 158.0000305175781 152.3999938964844 C 158.0000305175781 148.4569549560547 159.0025177001953 144.7346038818359 160.8227996826172 141.9185943603516 C 162.7422332763672 138.9492492675781 165.3469390869141 137.31396484375 168.1571197509766 137.31396484375 Z"/>
      </g>
      <g id="Path_10" data-name="Path 10" class="cls-2" transform="translate(-17.461 -105.783)">
        <path class="cls-4" d="M 24.09370422363281 134.0399322509766 L 22.07912445068359 130.7768707275391 C 21.79658317565918 130.3192291259766 21.51956367492676 129.8428802490234 21.2557544708252 129.3610229492188 L 21.25455474853516 129.3588409423828 L 21.25336456298828 129.3566284179688 C 20.25822448730469 127.5172424316406 19.41403388977051 125.5755233764648 18.74423408508301 123.5853958129883 L 18.66733360290527 123.3569030761719 L 18.70299339294434 123.1184768676758 C 19.27998352050781 119.2612533569336 20.48649406433105 115.5648956298828 22.28902435302734 112.1320724487305 L 22.95214462280273 110.8692016601562 L 23.91328430175781 111.9231338500977 C 24.45935440063477 112.5219345092773 25.05880355834961 113.1580429077148 25.6949634552002 113.8137969970703 C 25.9476432800293 114.0733261108398 26.21873474121094 114.322395324707 26.49945449829102 114.5528182983398 L 27.10599327087402 115.0506820678711 L 26.76665306091309 115.7582168579102 C 24.89068412780762 119.6696853637695 23.89909362792969 124.1810455322266 23.89909362792969 128.8045806884766 C 23.89909362792969 129.2727508544922 23.90919303894043 129.7451324462891 23.92910385131836 130.2086181640625 L 24.09370422363281 134.0399322509766 Z"/>
        <path class="cls-5" d="M 23.17439460754395 112.5969696044922 C 21.42889404296875 115.9211730957031 20.25087356567383 119.5302276611328 19.69199371337891 123.2664184570312 C 20.3453540802002 125.2076873779297 21.16208457946777 127.0863647460938 22.13289451599121 128.8807983398438 C 22.38972473144531 129.3498840332031 22.65540313720703 129.8067321777344 22.93002319335938 130.2515563964844 C 22.90940475463867 129.7715759277344 22.89909362792969 129.2892761230469 22.89909362792969 128.8045959472656 C 22.89909362792969 123.9843826293945 23.93221473693848 119.3556823730469 25.86499404907227 115.3257751464844 C 25.55468368530273 115.0710525512695 25.25830459594727 114.7987976074219 24.97722434997559 114.5101013183594 C 24.33055305480957 113.8435363769531 23.72964477539062 113.2058258056641 23.17439460754395 112.5969696044922 M 22.72989463806152 109.1414337158203 L 24.65217399597168 111.2492980957031 C 25.19149398803711 111.8406982421875 25.78382301330566 112.46923828125 26.41270446777344 113.1174926757812 C 26.63831329345703 113.3491973876953 26.88181304931641 113.5729217529297 27.13394355773926 113.7798919677734 L 28.34698295593262 114.7756195068359 L 27.66831398010254 116.1906661987305 C 25.85667419433594 119.9679946899414 24.89909362792969 124.3298187255859 24.89909362792969 128.8045959472656 C 24.89909362792969 129.2584991455078 24.90888404846191 129.7164459228516 24.92818450927734 130.1657104492188 L 25.25737380981445 137.8283386230469 L 21.22823333740234 131.3022155761719 C 20.93659400939941 130.829833984375 20.65073394775391 130.3383026123047 20.37861442565918 129.8412475585938 L 20.3762035369873 129.8368835449219 L 20.37382316589355 129.8324737548828 C 19.35159301757812 127.942985534668 18.48444366455078 125.948486328125 17.79647445678711 123.9043731689453 L 17.64267349243164 123.447395324707 L 17.71400451660156 122.9705352783203 C 18.30758476257324 119.0023422241211 19.54896354675293 115.199348449707 21.40366363525391 111.6671752929688 L 22.72989463806152 109.1414337158203 Z"/>
      </g>
      <g id="Ellipse_2" data-name="Ellipse 2" class="cls-3" transform="translate(45.317 33.303)">
        <ellipse class="cls-4" cx="0.906" cy="0.935" rx="0.906" ry="0.935"/>
        <ellipse class="cls-6" cx="0.906" cy="0.935" rx="1.906" ry="1.935"/>
      </g>
      <g id="Ellipse_3" data-name="Ellipse 3" class="cls-3" transform="translate(48.943 33.303)">
        <ellipse class="cls-4" cx="0.906" cy="0.935" rx="0.906" ry="0.935"/>
        <ellipse class="cls-6" cx="0.906" cy="0.935" rx="1.906" ry="1.935"/>
      </g>
      <g id="Ellipse_4" data-name="Ellipse 4" class="cls-3" transform="translate(47.13 37.042)">
        <ellipse class="cls-4" cx="0.906" cy="0.935" rx="0.906" ry="0.935"/>
        <ellipse class="cls-6" cx="0.906" cy="0.935" rx="1.906" ry="1.935"/>
      </g>
      <g id="Ellipse_5" data-name="Ellipse 5" class="cls-3" transform="translate(41.692 33.303)">
        <ellipse class="cls-4" cx="0.906" cy="0.935" rx="0.906" ry="0.935"/>
        <ellipse class="cls-6" cx="0.906" cy="0.935" rx="1.906" ry="1.935"/>
      </g>
      <g id="Path_11" data-name="Path 11" class="cls-2" transform="translate(-283.746 -214.162)">
        <path class="cls-4" d="M 322.9242858886719 251.2055511474609 L 322.3214111328125 250.908447265625 C 321.6812744140625 250.5929870605469 320.772216796875 249.9248504638672 320.0767517089844 248.5332946777344 C 319.3622741699219 247.103759765625 319 245.1720275878906 319 242.7917327880859 C 319 234.7966613769531 323.1028747558594 234.3411407470703 323.5707092285156 234.3155212402344 L 323.6262817382812 234.3124694824219 L 323.6818237304688 234.3155975341797 C 324.1203308105469 234.3403930664062 327.9734497070312 234.7661895751953 328.2362976074219 241.9864044189453 L 328.2626342773438 242.7095336914062 L 327.583984375 242.9606475830078 C 327.5664367675781 242.9671325683594 327.5490112304688 242.9739532470703 327.5316772460938 242.9810791015625 C 326.63818359375 243.3475189208984 326.2044677734375 244.4032440185547 326.563720703125 245.3349609375 L 326.9586791992188 246.3592529296875 L 325.9020690917969 246.6571807861328 C 325.1514892578125 246.8688201904297 324.6264953613281 247.5860595703125 324.6253662109375 248.4013824462891 C 324.6253051757812 248.6318511962891 324.6673889160156 248.8582305908203 324.7504272460938 249.0731201171875 L 325.1464538574219 250.0980529785156 L 324.0888366699219 250.3960723876953 C 323.8471984863281 250.4641571044922 323.6183776855469 250.5898284912109 323.4270629882812 250.7595367431641 L 322.9242858886719 251.2055511474609 Z"/>
        <path class="cls-5" d="M 322.7634582519531 250.0114593505859 C 323.0688781738281 249.7405242919922 323.4290161132812 249.5430450439453 323.817626953125 249.4335479736328 C 323.6905517578125 249.1046600341797 323.6252746582031 248.7539215087891 323.6253967285156 248.4000091552734 L 323.6253662109375 248.4000091552734 C 323.6271057128906 247.1355743408203 324.4480285644531 246.0281829833984 325.6306762695312 245.6947174072266 C 325.0763244628906 244.2570037841797 325.7570190429688 242.6280670166016 327.1510620117188 242.0563507080078 C 327.1795043945312 242.0446472167969 327.2081604003906 242.033447265625 327.2369689941406 242.0227813720703 C 327.0045776367188 235.6397399902344 323.8923950195312 235.3291015625 323.6253967285156 235.3140106201172 C 323.3480529785156 235.3292083740234 320 235.6625366210938 320 242.7917327880859 C 320 247.8235321044922 321.6688232421875 249.4720001220703 322.7634582519531 250.0114593505859 M 323.0851135253906 252.3996276855469 L 321.8793640136719 251.8054351806641 C 321.1014709472656 251.4220886230469 320.0021057128906 250.6207885742188 319.1822509765625 248.9803619384766 C 318.3977661132812 247.4107666015625 318 245.32861328125 318 242.7917327880859 C 318 239.3043975830078 318.7458190917969 236.7007751464844 320.2167358398438 235.0531616210938 C 321.571533203125 233.5356750488281 323.0845642089844 233.3406372070312 323.5160217285156 233.3170013427734 L 323.6271362304688 233.3109283447266 L 323.7382507324219 233.3171997070312 C 324.1442565917969 233.3401489257812 325.5713195800781 233.5218811035156 326.8884582519531 234.8969421386719 C 328.3303527832031 236.4022521972656 329.1200561523438 238.7752380371094 329.2356567382812 241.9500122070312 L 329.2882995605469 243.3962860107422 L 327.9309997558594 243.8984985351562 C 327.9247436523438 243.9008178710938 327.9184875488281 243.9032592773438 327.9122924804688 243.9058074951172 C 327.5237426757812 244.0651702880859 327.3345336914062 244.5544281005859 327.4967651367188 244.9751892089844 L 328.2866821289062 247.0237884521484 L 326.1734619140625 247.6196594238281 C 325.8512573242188 247.7105102539062 325.6258850097656 248.0325317382812 325.6253662109375 248.4027557373047 C 325.6253356933594 248.5082702636719 325.6448059082031 248.6133117675781 325.6831970214844 248.7126922607422 L 326.4752807617188 250.7625579833984 L 324.3600463867188 251.3585815429688 C 324.2628479003906 251.3859710693359 324.1697082519531 251.4375 324.0906677246094 251.5076293945312 L 323.0851135253906 252.3996276855469 Z"/>
      </g>
      <g id="Ellipse_6" data-name="Ellipse 6" class="cls-3" transform="translate(39.879 37.042)">
        <ellipse class="cls-4" cx="0.906" cy="0.935" rx="0.906" ry="0.935"/>
        <ellipse class="cls-6" cx="0.906" cy="0.935" rx="1.906" ry="1.935"/>
      </g>
      <g id="Ellipse_7" data-name="Ellipse 7" class="cls-3" transform="translate(43.505 29.565)">
        <ellipse class="cls-4" cx="0.906" cy="0.935" rx="0.906" ry="0.935"/>
        <ellipse class="cls-6" cx="0.906" cy="0.935" rx="1.906" ry="1.935"/>
      </g>
      <g id="Ellipse_8" data-name="Ellipse 8" class="cls-3" transform="translate(43.505 37.042)">
        <ellipse class="cls-4" cx="0.906" cy="0.935" rx="0.906" ry="0.935"/>
        <ellipse class="cls-6" cx="0.906" cy="0.935" rx="1.906" ry="1.935"/>
      </g>
    </g>
  </g>
</svg>
